<svg width="19" height="36" viewBox="0 0 19 36" fill="none" xmlns="http://www.w3.org/2000/svg">
<path fill-rule="evenodd" clip-rule="evenodd" d="M0.398609 0.406735C0.272255 0.535339 0.172009 0.688115 0.103607 0.856313C0.0352077 1.02451 0 1.20482 0 1.38693C0 1.56903 0.0352077 1.74935 0.103607 1.91754C0.172009 2.08574 0.272255 2.23852 0.398609 2.36712L15.7223 18.0004L0.398609 33.6336C0.143839 33.8936 0.000711441 34.2462 0.000711441 34.6138C0.000711441 34.9814 0.143839 35.334 0.398609 35.594C0.653379 35.854 0.99892 36 1.35922 36C1.71952 36 2.06506 35.854 2.31983 35.594L18.6014 18.9806C18.7277 18.852 18.828 18.6992 18.8964 18.531C18.9648 18.3628 19 18.1825 19 18.0004C19 17.8183 18.9648 17.6379 18.8964 17.4697C18.828 17.3015 18.7277 17.1488 18.6014 17.0202L2.31983 0.406735C2.1938 0.277806 2.04407 0.175515 1.87923 0.10572C1.7144 0.0359262 1.53769 0 1.35922 0C1.18076 0 1.00404 0.0359262 0.839207 0.10572C0.674368 0.175515 0.524643 0.277806 0.398609 0.406735Z" fill="#FFC753"/>
</svg>
