<svg width="19" height="36" viewBox="0 0 19 36" fill="none" xmlns="http://www.w3.org/2000/svg">
<path fill-rule="evenodd" clip-rule="evenodd" d="M18.6014 0.406735C18.4754 0.277806 18.3256 0.175515 18.1608 0.10572C17.996 0.0359262 17.8192 0 17.6408 0C17.4623 0 17.2856 0.0359262 17.1208 0.10572C16.9559 0.175515 16.8062 0.277806 16.6802 0.406735L0.398609 17.0202C0.272255 17.1488 0.172009 17.3015 0.103607 17.4697C0.0352077 17.6379 0 17.8183 0 18.0004C0 18.1825 0.0352077 18.3628 0.103607 18.531C0.172009 18.6992 0.272255 18.852 0.398609 18.9806L16.6802 35.594C16.9349 35.854 17.2805 36 17.6408 36C18.0011 36 18.3466 35.854 18.6014 35.594C18.8562 35.334 18.9993 34.9814 18.9993 34.6138C18.9993 34.2462 18.8562 33.8936 18.6014 33.6336L3.27773 18.0004L18.6014 2.36712C18.7277 2.23852 18.828 2.08574 18.8964 1.91754C18.9648 1.74935 19 1.56903 19 1.38693C19 1.20482 18.9648 1.02451 18.8964 0.856313C18.828 0.688115 18.7277 0.535339 18.6014 0.406735Z" fill="#FFC753"/>
</svg>
