<svg width="154" height="24" viewBox="0 0 154 24" fill="none" xmlns="http://www.w3.org/2000/svg">
<g clip-path="url(#clip0_24_32)">
<path d="M13.6589 23.8234C13.6247 23.6714 13.6162 23.5153 13.5863 23.3674C13.537 22.9996 13.4091 22.6457 13.2105 22.328C13.1913 22.2956 13.1641 22.2682 13.1314 22.2482C13.0986 22.2281 13.0613 22.216 13.0227 22.213C12.9596 22.2152 12.8992 22.2385 12.8519 22.2787C12.7928 22.3259 12.7398 22.3797 12.6939 22.4389C12.3201 22.8966 11.8087 23.2323 11.2294 23.4002C10.9204 23.4898 10.5999 23.5369 10.2772 23.5399C9.62237 23.533 8.98702 23.3246 8.46424 22.9451C7.94146 22.5656 7.55871 22.035 7.37207 21.4311C7.18542 20.8271 7.20469 20.1815 7.42705 19.5889C7.6494 18.9962 8.06316 18.4877 8.60772 18.1377C9.09229 17.8115 9.66873 17.6352 10.2601 17.6323C10.6879 17.6366 11.111 17.7189 11.5069 17.8747C11.9079 18.0351 12.2678 18.2776 12.5615 18.5854C12.5971 18.6293 12.6416 18.6658 12.6922 18.6926C12.7428 18.7194 12.7986 18.7361 12.8562 18.7416C12.9757 18.7416 13.0739 18.6512 13.1465 18.4663C13.1935 18.3404 13.2236 18.2092 13.2362 18.076C13.289 17.3595 13.2517 16.6395 13.1252 15.9316C13.1252 15.8371 13.0611 15.8083 12.9714 15.8042C12.797 15.7993 12.623 15.7843 12.4505 15.759C11.9054 15.6894 11.3801 15.5163 10.9051 15.2497C10.4302 14.9832 10.015 14.6284 9.6837 14.2061C9.29803 13.7212 9.05605 13.1448 8.98346 12.5382H8.77424L8.55648 12.5628C8.27894 12.5916 8.0014 12.5998 7.72387 12.6039C7.13331 12.634 6.54247 12.5502 5.98607 12.3574C5.84832 12.3051 5.72486 12.2231 5.62516 12.1178C5.52547 12.0124 5.45221 11.8865 5.41098 11.7496C5.36975 11.6128 5.36166 11.4687 5.38733 11.3283C5.41301 11.188 5.47177 11.0552 5.55909 10.9401C5.65009 10.8136 5.75613 10.6978 5.87505 10.595L5.96472 10.5088C6.37863 10.1105 6.61456 9.57245 6.62226 9.00927C6.63372 8.70648 6.58095 8.40461 6.46717 8.12208C6.35338 7.83956 6.18097 7.5823 5.96045 7.366C5.7387 7.14685 5.47294 6.97338 5.17933 6.85614C4.88572 6.7389 4.5704 6.68035 4.25253 6.68404C4.16155 6.67791 4.07024 6.67791 3.97926 6.68404C3.64637 6.72347 3.32605 6.83079 3.03972 6.99886C2.75339 7.16693 2.50764 7.39188 2.31889 7.65864C2.13014 7.92541 2.00275 8.22786 1.94522 8.54579C1.88768 8.86372 1.90134 9.1898 1.98527 9.50225C2.11221 9.96047 2.38371 10.3695 2.76238 10.6731C2.9071 10.7758 3.02224 10.9123 3.09694 11.0697C3.17165 11.2271 3.20345 11.4003 3.18935 11.5728C3.15886 11.7432 3.08307 11.9031 2.96935 12.037C2.85563 12.1709 2.70784 12.2742 2.54035 12.3369C2.41315 12.3982 2.28019 12.4477 2.14326 12.4848C1.65124 12.6232 1.14381 12.7045 0.631752 12.7272H0.204773C0.317852 14.7239 0.950226 16.6613 2.04389 18.3618C3.13756 20.0622 4.6575 21.4712 6.46428 22.4595C7.77052 23.1785 9.20612 23.6538 10.6956 23.8604C11.3457 23.956 12.0021 24.0068 12.6597 24.0124C12.9444 24.0124 13.229 24 13.5137 23.9754C13.6375 23.9548 13.6845 23.9384 13.6589 23.8234Z" fill="#FD9D22"/>
<path d="M12.6726 7.52625V7.49749C12.6726 7.251 12.6726 7.00452 12.7111 6.74981C12.7293 6.26887 12.853 5.79707 13.074 5.36536C13.1555 5.20722 13.2807 5.07372 13.4359 4.97951C13.591 4.88531 13.7701 4.83402 13.9536 4.83128C14.2283 4.83594 14.4902 4.94354 14.6837 5.13119C14.7483 5.1898 14.8082 5.25296 14.863 5.32016C15.0769 5.59504 15.3548 5.81779 15.6744 5.97049C15.9941 6.12318 16.3465 6.20156 16.7033 6.19932C16.8058 6.19932 16.9125 6.19932 17.0193 6.19932C17.5568 6.14191 18.0563 5.90487 18.4308 5.52952C18.8053 5.15416 19.0311 4.66429 19.0688 4.14523C19.123 3.69849 19.028 3.24675 18.7978 2.85534C18.5675 2.46393 18.2138 2.15312 17.7878 1.96788C17.4532 1.79332 17.0797 1.69891 16.699 1.69264C16.1652 1.70757 15.6516 1.89252 15.2388 2.21849C15.1776 2.26454 15.1191 2.31392 15.0637 2.36638C14.9665 2.45315 14.8638 2.53409 14.7563 2.60876C14.5937 2.71957 14.4004 2.78109 14.2012 2.78541C14.0351 2.78132 13.8732 2.73412 13.7326 2.64879C13.5921 2.56346 13.4781 2.44317 13.4028 2.30064C13.2919 2.11209 13.2113 1.90849 13.1637 1.69674C13.0721 1.29186 13.0263 0.878639 13.027 0.464285V0.0534668H12.4207C11.8485 0.0569572 11.2774 0.103659 10.7128 0.193143C9.19789 0.42016 7.7408 0.919067 6.4174 1.66388C4.76016 2.58888 3.34488 3.86647 2.2799 5.39884C1.21493 6.93122 0.5285 8.67773 0.273176 10.5047C0.20278 11.0043 0.172802 11.5083 0.183511 12.0124C0.183511 12.0946 0.18351 12.1685 0.285985 12.1685H0.324415C0.580602 12.1356 0.836788 12.1233 1.09297 12.0945C1.49848 12.0686 1.89531 11.9696 2.2629 11.8029C2.54044 11.6591 2.55751 11.5153 2.32695 11.3017C2.17463 11.1851 2.03188 11.0573 1.89997 10.9196C1.61589 10.584 1.41045 10.1933 1.29771 9.77429C1.18496 9.35527 1.16756 8.91777 1.24669 8.49168C1.356 7.80473 1.71769 7.17827 2.26609 6.726C2.81449 6.27374 3.51325 6.02564 4.23554 6.02677C4.37843 6.02548 4.5212 6.0351 4.66252 6.05553C5.19625 6.10455 5.70519 6.29585 6.13212 6.60792C6.55905 6.91998 6.88704 7.34045 7.07922 7.82204C7.31044 8.31685 7.38832 8.86535 7.30349 9.4017C7.21866 9.93805 6.97474 10.4394 6.601 10.8457C6.46864 11.0018 6.31066 11.1373 6.17403 11.2893C6.13761 11.3196 6.11012 11.3585 6.09434 11.4022C6.07856 11.4459 6.07503 11.4928 6.08413 11.5382C6.09323 11.5836 6.11462 11.6259 6.14615 11.6609C6.17767 11.6958 6.21822 11.7221 6.26369 11.7371C6.41323 11.8114 6.57505 11.86 6.74191 11.8809C7.03305 11.9225 7.32717 11.9417 7.62148 11.9384C8.02284 11.9384 8.42847 11.9097 8.82983 11.885C8.93231 11.885 8.94939 11.8275 8.9622 11.7454C9.00285 11.2831 9.10915 10.8283 9.27816 10.3938C9.62436 9.51578 10.2968 8.79262 11.1654 8.36432C11.6464 8.128 12.1722 7.98823 12.7111 7.95351V7.7481L12.6726 7.52625Z" fill="#68F574"/>
<path d="M21.0499 19.4317C20.9773 19.2838 20.9047 19.14 20.8236 18.9962C20.2387 17.9733 19.5427 17.012 18.8638 16.0424C18.4069 15.3975 17.9415 14.7648 17.4249 14.1609C17.3736 14.1034 17.3352 14.0664 17.2968 14.0664C17.2583 14.0664 17.2242 14.0952 17.1772 14.1568C17.0252 14.3584 16.8457 14.5394 16.6435 14.695C15.849 15.338 14.8615 15.7194 13.8254 15.7836C13.8254 15.7836 13.8724 16.1944 13.8681 16.1944C13.8938 16.4081 13.9108 16.6053 13.9279 16.8189V16.9668C13.9965 17.516 13.9618 18.0727 13.8254 18.6101C13.7846 18.8339 13.6653 19.0375 13.4874 19.1871C13.3095 19.3366 13.0837 19.4229 12.8477 19.4317C12.656 19.4286 12.4688 19.3761 12.3054 19.2797C12.1901 19.2086 12.0853 19.1229 11.9937 19.025C11.7732 18.8029 11.5081 18.6261 11.2146 18.5054C10.921 18.3846 10.605 18.3224 10.2858 18.3225C10.1833 18.3225 10.068 18.3225 9.94847 18.3512C9.53038 18.4003 9.13475 18.5604 8.80593 18.8136C8.47711 19.0669 8.22811 19.4032 8.08684 19.785C7.91047 20.181 7.86217 20.619 7.94823 21.0418C8.03429 21.4646 8.25073 21.8527 8.56933 22.1554C8.77262 22.3776 9.02201 22.5564 9.30146 22.6802C9.58091 22.804 9.88422 22.8702 10.1918 22.8743H10.2986C10.6689 22.8778 11.0346 22.7951 11.3647 22.6335C11.6947 22.4719 11.9793 22.236 12.1944 21.9459C12.2845 21.8238 12.4027 21.7232 12.5396 21.652C12.6766 21.5808 12.8287 21.5408 12.9843 21.5351C13.1573 21.537 13.3268 21.5818 13.4764 21.6653C13.626 21.7488 13.7507 21.8681 13.8382 22.0116C13.9095 22.125 13.9723 22.243 14.0261 22.3649C14.0735 22.4816 14.1134 22.601 14.1457 22.7223C14.1798 22.8292 14.2097 22.9401 14.2353 23.051C14.261 23.1619 14.2994 23.3386 14.3293 23.4618C14.3592 23.6097 14.3805 23.7494 14.3976 23.8726C15.1692 23.7673 15.9295 23.5954 16.6691 23.3591C18.3481 22.8426 19.8249 21.8485 20.9047 20.508C21.0338 20.361 21.1161 20.1813 21.1418 19.9904C21.1676 19.7995 21.1357 19.6056 21.0499 19.4317Z" fill="#C91778"/>
<path d="M13.3814 7.42355C13.3798 6.94603 13.4386 6.4701 13.5564 6.00624C13.5826 5.90945 13.6198 5.81575 13.6675 5.72687C13.8212 5.45573 14.0133 5.42697 14.2268 5.66114C14.4511 5.92826 14.7109 6.16584 14.9996 6.36775C15.4774 6.68463 16.039 6.86395 16.6189 6.88472C17.1988 6.90548 17.7727 6.76682 18.2736 6.48498C18.7745 6.20314 19.1815 5.78978 19.447 5.29336C19.7125 4.79693 19.8255 4.23799 19.7727 3.68202C19.7198 3.12605 19.5034 2.59608 19.1488 2.15419C18.7942 1.7123 18.316 1.37681 17.7703 1.18701C17.2246 0.99721 16.634 0.960969 16.0677 1.08254C15.5013 1.2041 14.9828 1.47844 14.5727 1.87341L14.4488 1.98021C14.2524 2.124 14.0944 2.07881 13.9962 1.86518C13.8831 1.60348 13.8139 1.32614 13.7913 1.04354C13.7571 0.788837 13.7529 0.534136 13.7443 0.279429C13.7358 0.0247214 13.7443 0.0206142 13.9962 0.0493715C14.64 0.119349 15.2778 0.233291 15.9048 0.390345C17.419 0.76904 18.838 1.43839 20.0764 2.35817C20.5105 2.68601 20.9187 3.0444 21.2976 3.4304C21.3572 3.48815 21.3963 3.56256 21.4093 3.64298C21.4223 3.7234 21.4086 3.80571 21.3702 3.87819C21.0766 4.55341 20.74 5.21059 20.3625 5.84601C19.7149 7.09631 18.9891 8.30772 18.1892 9.47354C18.0791 9.63015 17.9517 9.77478 17.8092 9.9049C17.5957 10.0815 17.553 10.0898 17.3822 9.9049C17.0599 9.55087 16.6976 9.23257 16.3019 8.95591C15.516 8.37276 14.568 8.02679 13.5778 7.96172C13.454 7.96172 13.4027 7.92064 13.4155 7.7974C13.4283 7.67415 13.3814 7.54269 13.3814 7.42355Z" fill="#00CAF7"/>
<path d="M149.378 17.4433C149.101 17.6487 148.853 17.8541 148.588 18.0267C146.932 19.1153 145.173 19.0825 143.358 18.4375C140.314 17.3652 138.601 14.7155 138.789 11.4823C138.947 8.75039 141.168 6.23619 144.118 5.56655C146.253 5.07768 148.23 5.35704 149.729 7.20983C149.887 6.79901 150.032 6.40872 150.156 6.02256C150.195 5.86116 150.297 5.72023 150.441 5.62804C150.584 5.53584 150.758 5.4992 150.928 5.52547C151.436 5.55423 151.953 5.52547 152.465 5.52547C153.093 5.52547 153.375 5.78429 153.383 6.38819C153.383 7.20983 153.383 7.9986 153.383 8.8038V17.5789C153.383 18.4252 153.166 18.6347 152.303 18.6388H150.732C149.878 18.6388 149.797 18.5936 149.519 17.8172C149.477 17.7021 149.43 17.5871 149.378 17.4433ZM149.233 12.1602C149.239 11.7304 149.157 11.3037 148.99 10.9049C148.823 10.5062 148.576 10.1433 148.262 9.83747C147.948 9.53162 147.574 9.28889 147.162 9.12343C146.749 8.95796 146.307 8.87305 145.86 8.87364C144.054 8.87364 142.696 10.2458 142.679 12.0986C142.662 13.9514 143.96 15.3399 145.809 15.3481C146.254 15.3636 146.697 15.2926 147.112 15.1392C147.528 14.9858 147.907 14.7533 148.226 14.4556C148.546 14.1579 148.8 13.8012 148.973 13.4067C149.146 13.0123 149.235 12.5883 149.233 12.1602Z" fill="white"/>
<path d="M95.8267 13.3147C94.5117 13.3147 93.1966 13.3147 91.8815 13.3147C91.4545 13.3147 91.4545 13.4502 91.557 13.7624C91.7523 14.2827 92.1053 14.7346 92.5704 15.0598C93.0354 15.385 93.5912 15.5684 94.1658 15.5865C95.3177 15.684 96.4637 15.345 97.3596 14.6416C97.4282 14.5673 97.5132 14.5086 97.6084 14.47C97.7036 14.4314 97.8067 14.4139 97.9099 14.4186C98.0131 14.4233 98.1139 14.4502 98.2048 14.4974C98.2958 14.5445 98.3747 14.6106 98.4356 14.6909C98.8626 15.1223 99.2895 15.5536 99.6738 16.0014C99.7418 16.0709 99.7933 16.1536 99.8249 16.244C99.8564 16.3344 99.8673 16.4303 99.8568 16.5251C99.8462 16.6199 99.8145 16.7114 99.7638 16.7933C99.713 16.8753 99.6445 16.9457 99.5628 16.9997C98.7778 17.6932 97.8443 18.2127 96.828 18.5217C95.8118 18.8307 94.7375 18.9216 93.6809 18.788C92.6242 18.6545 91.6108 18.2997 90.7119 17.7487C89.8131 17.1977 89.0507 16.4639 88.4784 15.5988C87.9075 14.7164 87.558 13.7182 87.4577 12.6832C87.3574 11.6482 87.509 10.605 87.9006 9.63626C88.2921 8.66749 88.9128 7.79981 89.7135 7.10197C90.5142 6.40414 91.4728 5.89534 92.5134 5.61593C97.0479 4.38348 101.553 8.08084 100.98 12.5382C100.98 12.7119 100.913 12.8792 100.792 13.0087C100.672 13.1381 100.506 13.2206 100.327 13.2407C100.094 13.2863 99.8565 13.3138 99.6183 13.3229C98.3374 13.3229 97.0906 13.3229 95.8267 13.3229V13.3147ZM91.5954 10.3527H97.0479C96.8368 9.80097 96.4506 9.32716 95.9441 8.99832C95.4375 8.66949 94.8363 8.5023 94.2256 8.52042C92.9745 8.57793 92.2273 9.34205 91.5954 10.3527Z" fill="white"/>
<path d="M106.864 7.17694C108.457 5.43918 110.442 5.04891 112.581 5.57476C114.721 6.1006 115.775 7.62885 116.228 9.61721C116.344 10.1577 116.4 10.7086 116.394 11.2605C116.394 13.3639 116.394 15.4659 116.394 17.5665C116.394 18.458 116.219 18.6223 115.288 18.6223C114.554 18.6223 113.82 18.6223 113.085 18.6223C112.458 18.6223 112.3 18.458 112.3 17.85C112.3 15.7179 112.248 13.5816 112.3 11.4454C112.3 10.8254 112.044 10.2308 111.588 9.79245C111.132 9.35407 110.514 9.1078 109.87 9.1078C109.226 9.1078 108.608 9.35407 108.152 9.79245C107.697 10.2308 107.441 10.8254 107.441 11.4454C107.441 13.4994 107.441 15.5535 107.441 17.6076C107.441 18.4539 107.248 18.6347 106.356 18.6347C105.639 18.6347 104.921 18.6347 104.221 18.6347C103.521 18.6347 103.29 18.4005 103.29 17.7432C103.29 13.9801 103.29 10.2197 103.29 6.46212C103.29 5.85001 103.555 5.60352 104.196 5.59119C104.674 5.59119 105.152 5.61173 105.63 5.59119C105.853 5.55544 106.081 5.60578 106.265 5.73123C106.449 5.85669 106.574 6.04707 106.612 6.26083C106.693 6.5484 106.77 6.84829 106.864 7.17694Z" fill="white"/>
<path d="M28.9747 18.8647C27.5938 18.8339 26.2531 18.4114 25.1209 17.6501C23.9887 16.8888 23.1154 15.8226 22.6108 14.5855C22.1061 13.3484 21.9925 11.9954 22.2842 10.6964C22.5758 9.39733 23.2599 8.21014 24.2503 7.28382C25.2408 6.35749 26.4936 5.73331 27.8515 5.48962C29.2093 5.24593 30.6118 5.39358 31.8827 5.91405C33.1537 6.43453 34.2365 7.30463 34.9953 8.41513C35.7542 9.52564 36.1551 10.8271 36.1479 12.1561C36.1431 13.0521 35.9527 13.9382 35.588 14.7626C35.2233 15.5871 34.6915 16.3334 34.0237 16.9579C33.3559 17.5825 32.5655 18.0728 31.6986 18.4001C30.8317 18.7275 29.9057 18.8855 28.9747 18.8647ZM28.9747 15.3358C30.7936 15.3358 32.0617 14.0171 32.0575 12.1232C32.0532 10.2293 30.7765 8.8695 29.0046 8.86128C27.2326 8.85306 25.8577 10.2252 25.8449 12.0944C25.8321 13.9636 27.1301 15.3317 28.9747 15.3358Z" fill="white"/>
<path d="M41.9121 7.15644C43.4023 5.53371 45.2682 5.127 47.3518 5.51316C49.2049 5.86647 50.3407 7.04552 50.9982 8.69701C51.3015 9.51938 51.4462 10.3881 51.4252 11.2605C51.4252 13.3612 51.4252 15.4632 51.4252 17.5666C51.4252 18.4827 51.2672 18.6347 50.3364 18.6347H48.2015C47.4885 18.6347 47.3476 18.4909 47.3476 17.7761C47.3476 15.6398 47.3476 13.5077 47.3476 11.3714C47.3463 10.9982 47.2519 10.6307 47.0724 10.2998C46.8929 9.96887 46.6336 9.68422 46.3161 9.46971C45.9986 9.2552 45.6323 9.1171 45.2479 9.067C44.8635 9.0169 44.4721 9.05625 44.1068 9.18177C43.6386 9.36397 43.2367 9.67528 42.9518 10.0766C42.667 10.4779 42.5117 10.9512 42.5056 11.4372C42.5056 13.4913 42.5056 15.5741 42.5056 17.6446C42.5056 18.4293 42.2921 18.6347 41.4766 18.6347C40.7422 18.6347 40.0121 18.6347 39.2777 18.6347C38.5433 18.6347 38.3383 18.4088 38.3383 17.7514C38.3383 13.9883 38.3383 10.2266 38.3383 6.46627C38.3383 5.84182 38.5902 5.60355 39.235 5.59122C39.7303 5.59122 40.2256 5.59122 40.7209 5.59122C40.934 5.56893 41.148 5.62459 41.3204 5.74712C41.4929 5.86965 41.6111 6.0501 41.6517 6.25263L41.9121 7.15644Z" fill="white"/>
<path d="M125.66 18.8688C124.716 18.8734 123.782 18.6949 122.912 18.3439C122.042 17.993 121.255 17.4769 120.597 16.8265C119.939 16.176 119.424 15.4046 119.083 14.5583C118.742 13.7121 118.582 12.8084 118.613 11.9012C118.643 10.9941 118.864 10.1022 119.26 9.2789C119.657 8.45557 120.223 7.71772 120.923 7.10947C121.623 6.50122 122.443 6.03507 123.335 5.73889C124.227 5.44272 125.171 5.32261 126.112 5.38573C127.393 5.46008 128.631 5.85212 129.707 6.52369C130.292 6.89754 130.374 7.2262 130.028 7.79723C129.763 8.23681 129.494 8.67639 129.221 9.10774C128.76 9.83489 128.486 9.90063 127.731 9.46927C126.646 8.84893 125.523 8.60243 124.315 9.15293C122.709 9.8924 122.047 12.0287 122.901 13.7212C123.666 15.2248 125.536 15.7753 127.193 14.9537C128.589 14.28 128.589 14.28 129.485 15.5453C129.708 15.8575 129.912 16.1697 130.143 16.486C130.468 16.9626 130.429 17.1598 129.942 17.509C128.698 18.3824 127.2 18.8581 125.66 18.8688Z" fill="white"/>
<path d="M59.6189 13.0764C60.3021 11.0223 60.9553 9.02572 61.6129 7.04558C62.1594 5.37766 62.0142 5.60772 63.624 5.59539H65.571C66.3225 5.59539 66.4932 5.84598 66.2029 6.51151C65.2294 8.72445 64.2516 10.9388 63.2696 13.1544C62.5779 14.7197 61.8733 16.2808 61.203 17.8583C61.1289 18.1095 60.9648 18.3274 60.7397 18.4733C60.5146 18.6192 60.2431 18.6837 59.9733 18.6553C57.9067 18.6265 58.338 18.7539 57.6505 17.1805C56.1091 13.6844 54.6104 10.1719 53.1032 6.65941C52.7616 5.86653 52.9495 5.59539 53.8291 5.59539H56.186C56.9289 5.59539 57.0741 5.6981 57.3004 6.3513C58.0177 8.44921 58.7294 10.5485 59.4353 12.6491C59.4823 12.7559 59.5335 12.8628 59.6189 13.0764Z" fill="white"/>
<path d="M80.3103 12.9776C81.0533 10.7387 81.7791 8.54081 82.5093 6.34704C82.727 5.68562 82.8594 5.59524 83.5682 5.59524H86.177C87.0011 5.59524 87.1548 5.8294 86.8346 6.56066C85.861 8.7736 84.8847 10.9879 83.9055 13.2036C83.2138 14.7688 82.5093 16.3299 81.8389 17.9034C81.768 18.1397 81.6126 18.3443 81.4001 18.4812C81.1876 18.618 80.9317 18.6781 80.6775 18.651C78.628 18.6182 79.0209 18.8072 78.2907 17.131C76.7707 13.6445 75.2592 10.1553 73.7562 6.66336C73.4189 5.88281 73.6196 5.59935 74.4906 5.59524C75.2933 5.59524 76.096 5.59524 76.8988 5.59524C77.1361 5.56357 77.3771 5.62036 77.5723 5.754C77.7676 5.88765 77.9024 6.08805 77.9491 6.31418C78.6323 8.38881 79.3496 10.4511 80.0541 12.5175C80.0878 12.6928 80.1774 12.8536 80.3103 12.9776Z" fill="white"/>
<path d="M67.8639 12.1316C67.8639 10.2911 67.8639 8.45473 67.8639 6.61427C67.8639 5.79263 68.0817 5.59545 68.9228 5.59545H71.0235C71.1641 5.57535 71.3075 5.58721 71.4424 5.63006C71.5773 5.67292 71.6999 5.74558 71.8003 5.84223C71.9008 5.93888 71.9763 6.05682 72.0209 6.18661C72.0654 6.3164 72.0777 6.45442 72.0568 6.58962V17.6817C72.0568 18.413 71.8177 18.643 71.0406 18.6471C70.2635 18.6512 69.5419 18.6471 68.7904 18.6471C68.039 18.6471 67.8682 18.4171 67.8639 17.7557C67.8596 15.8864 67.8639 14.0049 67.8639 12.1316Z" fill="white"/>
<path d="M132.406 12.111C132.406 10.2706 132.406 8.41368 132.406 6.59376C132.406 5.77212 132.598 5.59547 133.418 5.59547C134.131 5.59547 134.848 5.59547 135.553 5.59547C135.69 5.57757 135.829 5.59048 135.96 5.63321C136.091 5.67594 136.209 5.74731 136.307 5.8417C136.404 5.93609 136.477 6.05092 136.52 6.17715C136.564 6.30337 136.576 6.43755 136.556 6.56911C136.556 10.2802 136.556 13.9899 136.556 17.6982C136.556 18.4171 136.321 18.6348 135.574 18.6431C134.827 18.6513 134.071 18.6431 133.324 18.6431C132.577 18.6431 132.393 18.4376 132.393 17.7228C132.402 15.8536 132.406 13.9803 132.406 12.111Z" fill="white"/>
<path d="M69.9476 0.402667C70.3745 0.402667 70.8015 0.402667 71.2285 0.402667C71.7964 0.402667 72.0483 0.640943 72.0568 1.17501C72.0568 1.82821 72.0568 2.48552 72.0568 3.13872C72.0625 3.26171 72.0412 3.38446 71.9942 3.49897C71.9472 3.61348 71.8756 3.71716 71.7842 3.80324C71.6927 3.88932 71.5834 3.95586 71.4633 3.9985C71.3433 4.04115 71.2153 4.05895 71.0876 4.05073H68.7392C68.1585 4.05073 67.8853 3.80014 67.8853 3.2291C67.8853 2.52249 67.8853 1.81999 67.8853 1.11749C67.8853 0.591639 68.1329 0.394447 68.688 0.38623L69.9476 0.402667Z" fill="white"/>
<path d="M134.455 0.402667C134.882 0.402667 135.339 0.402667 135.783 0.402667C136.304 0.402667 136.548 0.620396 136.565 1.11749C136.586 1.80355 136.595 2.49373 136.565 3.17158C136.566 3.29136 136.542 3.41016 136.493 3.52025C136.444 3.63034 136.371 3.72928 136.28 3.81064C136.188 3.89199 136.08 3.95394 135.962 3.99247C135.845 4.03101 135.72 4.04525 135.596 4.0343H133.239C132.679 4.0343 132.419 3.79192 132.41 3.25786C132.41 2.53482 132.41 1.81177 132.41 1.09284C132.41 0.583424 132.628 0.394447 133.175 0.38623C133.602 0.394447 134.029 0.402667 134.455 0.402667Z" fill="white"/>
</g>
<defs>
<clipPath id="clip0_24_32">
<rect width="153.213" height="24" fill="white" transform="translate(0.187744)"/>
</clipPath>
</defs>
</svg>
