<svg width="153" height="24" viewBox="0 0 153 24" fill="none" xmlns="http://www.w3.org/2000/svg">
<g clip-path="url(#clip0_24_110)">
<path d="M13.4524 23.8233C13.4183 23.6713 13.4098 23.5152 13.38 23.3673C13.3308 22.9996 13.203 22.6457 13.0047 22.328C12.9855 22.2956 12.9584 22.2682 12.9257 22.2481C12.893 22.2281 12.8557 22.216 12.8171 22.2129C12.7541 22.2152 12.6938 22.2384 12.6466 22.2787C12.5876 22.3259 12.5347 22.3797 12.4888 22.4389C12.1155 22.8966 11.6048 23.2323 11.0263 23.4002C10.7178 23.4898 10.3977 23.5368 10.0755 23.5399C9.42154 23.533 8.78708 23.3246 8.26502 22.9451C7.74297 22.5656 7.36075 22.035 7.17437 21.4311C6.98798 20.8271 7.00723 20.1815 7.22927 19.5889C7.45132 18.9962 7.8645 18.4876 8.4083 18.1376C8.89221 17.8114 9.46784 17.6351 10.0584 17.6323C10.4856 17.6366 10.9081 17.7188 11.3035 17.8747C11.7039 18.0351 12.0633 18.2776 12.3566 18.5854C12.3921 18.6293 12.4365 18.6657 12.4871 18.6926C12.5377 18.7194 12.5934 18.7361 12.6508 18.7415C12.7702 18.7415 12.8683 18.6511 12.9408 18.4663C12.9877 18.3404 13.0178 18.2092 13.0303 18.076C13.083 17.3595 13.0458 16.6394 12.9195 15.9315C12.9195 15.837 12.8555 15.8083 12.766 15.8042C12.5918 15.7993 12.4181 15.7842 12.2458 15.759C11.7014 15.6894 11.1768 15.5163 10.7025 15.2497C10.2282 14.9831 9.8136 14.6284 9.48279 14.2061C9.09766 13.7212 8.85601 13.1448 8.78352 12.5382H8.57459L8.35714 12.5628C8.07999 12.5916 7.80283 12.5998 7.52568 12.6039C6.93595 12.634 6.34592 12.5502 5.79029 12.3574C5.65274 12.3051 5.52944 12.2231 5.42989 12.1177C5.33034 12.0124 5.25717 11.8864 5.216 11.7496C5.17483 11.6127 5.16675 11.4686 5.19239 11.3283C5.21803 11.188 5.27671 11.0552 5.36391 10.9401C5.45478 10.8136 5.56067 10.6978 5.67943 10.595L5.76897 10.5087C6.18231 10.1104 6.41791 9.57242 6.4256 9.00924C6.43705 8.70645 6.38435 8.40457 6.27072 8.12205C6.1571 7.83953 5.98493 7.58227 5.76471 7.36597C5.54327 7.14682 5.27788 6.97335 4.98468 6.85611C4.69148 6.73887 4.37659 6.68032 4.05916 6.68401C3.96831 6.67788 3.87713 6.67788 3.78628 6.68401C3.45384 6.72344 3.13397 6.83076 2.84804 6.99883C2.5621 7.1669 2.31669 7.39185 2.12821 7.65861C1.93972 7.92538 1.81251 8.22783 1.75505 8.54576C1.6976 8.86369 1.71124 9.18977 1.79506 9.50222C1.92181 9.96044 2.19294 10.3695 2.57108 10.6731C2.7156 10.7758 2.83058 10.9123 2.90518 11.0697C2.97978 11.2271 3.01154 11.4002 2.99746 11.5727C2.96701 11.7432 2.89133 11.9031 2.77777 12.037C2.6642 12.1709 2.51662 12.2742 2.34936 12.3369C2.22234 12.3981 2.08956 12.4477 1.95282 12.4848C1.46148 12.6231 0.954766 12.7045 0.443415 12.7271H0.0170288C0.129951 14.7239 0.761446 16.6613 1.85359 18.3617C2.94574 20.0622 4.46357 21.4711 6.26784 22.4594C7.57227 23.1785 9.00587 23.6538 10.4933 23.8603C11.1425 23.956 11.798 24.0068 12.4547 24.0123C12.739 24.0123 13.0232 24 13.3075 23.9753C13.4311 23.9548 13.478 23.9384 13.4524 23.8233Z" fill="#FD9D22"/>
<path d="M12.4676 7.52619V7.49743C12.4676 7.25094 12.4675 7.00446 12.5059 6.74975C12.5241 6.26881 12.6476 5.79701 12.8683 5.36529C12.9498 5.20716 13.0748 5.07366 13.2297 4.97945C13.3847 4.88524 13.5635 4.83396 13.7467 4.83122C14.021 4.83588 14.2826 4.94348 14.4758 5.13113C14.5403 5.18974 14.6002 5.2529 14.6549 5.3201C14.8684 5.59498 15.146 5.81773 15.4652 5.97043C15.7843 6.12312 16.1363 6.2015 16.4926 6.19926C16.595 6.19926 16.7016 6.19926 16.8082 6.19926C17.3449 6.14185 17.8437 5.90481 18.2177 5.52946C18.5917 5.1541 18.8172 4.66422 18.8548 4.14516C18.9089 3.69843 18.8141 3.24669 18.5842 2.85528C18.3542 2.46387 18.001 2.15306 17.5756 1.96782C17.2414 1.79326 16.8685 1.69885 16.4884 1.69258C15.9553 1.70751 15.4424 1.89246 15.0301 2.21843C14.969 2.26448 14.9106 2.31386 14.8553 2.36631C14.7582 2.45308 14.6557 2.53403 14.5483 2.6087C14.386 2.71951 14.1929 2.78103 13.994 2.78534C13.8281 2.78125 13.6664 2.73406 13.5261 2.64873C13.3857 2.5634 13.2719 2.4431 13.1967 2.30058C13.0859 2.11203 13.0054 1.90843 12.9579 1.69668C12.8665 1.2918 12.8207 0.878578 12.8214 0.464224V0.0534058H12.216C11.6445 0.0568962 11.0743 0.103598 10.5104 0.193082C8.99762 0.420099 7.54256 0.919006 6.221 1.66382C4.56606 2.58882 3.15274 3.86641 2.08924 5.39878C1.02575 6.93115 0.340274 8.67767 0.0853047 10.5046C0.0150063 11.0042 -0.0149302 11.5083 -0.00423593 12.0123C-0.00423593 12.0945 -0.00423684 12.1684 0.0980957 12.1684H0.136472C0.392304 12.1356 0.648133 12.1232 0.903965 12.0945C1.3089 12.0685 1.70519 11.9696 2.07226 11.8028C2.34941 11.659 2.36647 11.5152 2.13622 11.3016C1.98411 11.185 1.84156 11.0573 1.70984 10.9196C1.42615 10.5839 1.221 10.1933 1.10841 9.77423C0.995824 9.35521 0.978444 8.91771 1.05746 8.49162C1.16662 7.80467 1.52781 7.17821 2.07545 6.72594C2.62309 6.27367 3.32088 6.02558 4.04216 6.02671C4.18486 6.02542 4.32743 6.03504 4.46855 6.05547C5.00154 6.10449 5.50978 6.29579 5.93611 6.60785C6.36245 6.91992 6.68998 7.34039 6.8819 7.82198C7.1128 8.31679 7.19057 8.86529 7.10586 9.40164C7.02114 9.93798 6.77756 10.4394 6.40434 10.8456C6.27217 11.0017 6.1144 11.1373 5.97796 11.2893C5.9416 11.3195 5.91414 11.3584 5.89838 11.4021C5.88262 11.4458 5.8791 11.4927 5.88819 11.5382C5.89727 11.5836 5.91864 11.6259 5.95012 11.6608C5.9816 11.6957 6.02209 11.722 6.0675 11.7371C6.21683 11.8113 6.37842 11.86 6.54505 11.8809C6.83579 11.9224 7.1295 11.9417 7.42341 11.9384C7.82421 11.9384 8.22928 11.9096 8.63008 11.885C8.73241 11.885 8.74947 11.8275 8.76226 11.7453C8.80285 11.283 8.90901 10.8282 9.07778 10.3937C9.4235 9.51572 10.095 8.79256 10.9624 8.36426C11.4427 8.12794 11.9678 7.98817 12.5059 7.95344V7.74804L12.4676 7.52619Z" fill="#68F574"/>
<path d="M20.8332 19.4317C20.7607 19.2838 20.6882 19.14 20.6072 18.9962C20.023 17.9733 19.328 17.012 18.6501 16.0424C18.1939 15.3975 17.7291 14.7648 17.2132 14.1609C17.162 14.1034 17.1236 14.0664 17.0852 14.0664C17.0469 14.0664 17.0128 14.0952 16.9659 14.1568C16.8141 14.3584 16.6348 14.5394 16.4329 14.695C15.6395 15.338 14.6533 15.7194 13.6187 15.7836C13.6187 15.7836 13.6656 16.1944 13.6614 16.1944C13.687 16.4081 13.704 16.6053 13.7211 16.8189V16.9668C13.7896 17.516 13.7549 18.0727 13.6187 18.6101C13.578 18.8339 13.4588 19.0375 13.2812 19.1871C13.1035 19.3366 12.878 19.4229 12.6423 19.4317C12.4509 19.4286 12.264 19.3761 12.1008 19.2797C11.9857 19.2086 11.881 19.1229 11.7895 19.025C11.5693 18.8029 11.3046 18.6261 11.0115 18.5054C10.7183 18.3846 10.4028 18.3224 10.084 18.3225C9.98166 18.3225 9.86654 18.3225 9.74715 18.3512C9.32964 18.4003 8.93456 18.5604 8.6062 18.8136C8.27784 19.0669 8.02918 19.4032 7.88811 19.785C7.71198 20.181 7.66374 20.619 7.74968 21.0418C7.83563 21.4646 8.05177 21.8527 8.36993 22.1554C8.57293 22.3776 8.82198 22.5564 9.10104 22.6802C9.3801 22.804 9.68299 22.8702 9.99019 22.8743H10.0968C10.4666 22.8778 10.8318 22.7951 11.1614 22.6335C11.491 22.4719 11.7752 22.236 11.9899 21.9459C12.08 21.8238 12.1979 21.7232 12.3347 21.652C12.4715 21.5808 12.6234 21.5408 12.7788 21.5351C12.9515 21.537 13.1208 21.5818 13.2702 21.6653C13.4196 21.7488 13.5441 21.8681 13.6315 22.0116C13.7027 22.125 13.7654 22.243 13.8191 22.3649C13.8664 22.4816 13.9063 22.601 13.9385 22.7223C13.9726 22.8292 14.0025 22.9401 14.0281 23.051C14.0536 23.1619 14.092 23.3386 14.1219 23.4618C14.1517 23.6097 14.173 23.7494 14.1901 23.8726C14.9607 23.7673 15.7198 23.5954 16.4585 23.3591C18.1351 22.8426 19.6098 21.8485 20.6882 20.508C20.8171 20.361 20.8993 20.1813 20.925 19.9904C20.9507 19.7995 20.9188 19.6056 20.8332 19.4317Z" fill="#C91778"/>
<path d="M13.1753 7.42349C13.1738 6.94597 13.2325 6.47004 13.3501 6.00617C13.3763 5.90939 13.4134 5.81569 13.461 5.72681C13.6145 5.45567 13.8064 5.42691 14.0196 5.66108C14.2435 5.9282 14.503 6.16578 14.7913 6.36768C15.2684 6.68457 15.8293 6.86389 16.4083 6.88465C16.9874 6.90542 17.5606 6.76676 18.0608 6.48492C18.561 6.20308 18.9674 5.78972 19.2326 5.2933C19.4977 4.79687 19.6105 4.23793 19.5577 3.68196C19.505 3.12598 19.2889 2.59601 18.9347 2.15413C18.5806 1.71224 18.1031 1.37674 17.5582 1.18695C17.0132 0.997149 16.4234 0.960908 15.8579 1.08247C15.2923 1.20404 14.7745 1.47838 14.3649 1.87334L14.2413 1.98015C14.0452 2.12393 13.8874 2.07875 13.7893 1.86512C13.6763 1.60342 13.6073 1.32608 13.5847 1.04348C13.5505 0.788776 13.5463 0.534075 13.5378 0.279368C13.5292 0.0246604 13.5378 0.0205532 13.7893 0.0493105C14.4322 0.119288 15.0691 0.23323 15.6953 0.390284C17.2073 0.768979 18.6243 1.43833 19.8611 2.35811C20.2945 2.68595 20.7021 3.04434 21.0805 3.43034C21.14 3.48809 21.1791 3.5625 21.1921 3.64292C21.2051 3.72333 21.1914 3.80565 21.153 3.87813C20.8598 4.55335 20.5238 5.21053 20.1467 5.84595C19.5 7.09625 18.7753 8.30766 17.9764 9.47348C17.8665 9.63009 17.7393 9.77472 17.5969 9.90483C17.3838 10.0815 17.3411 10.0897 17.1706 9.90483C16.8488 9.55081 16.4869 9.23251 16.0918 8.95585C15.3069 8.3727 14.3603 8.02673 13.3715 7.96166C13.2478 7.96166 13.1966 7.92058 13.2094 7.79734C13.2222 7.67409 13.1753 7.54263 13.1753 7.42349Z" fill="#00CAF7"/>
<path d="M148.983 17.4433C148.706 17.6488 148.459 17.8542 148.195 18.0267C146.54 19.1154 144.784 19.0825 142.971 18.4375C139.931 17.3653 138.221 14.7155 138.409 11.4824C138.567 8.75042 140.784 6.23622 143.73 5.56658C145.862 5.07771 147.836 5.35707 149.333 7.20986C149.491 6.79904 149.636 6.40876 149.759 6.02259C149.799 5.86119 149.901 5.72026 150.044 5.62807C150.187 5.53587 150.361 5.49923 150.531 5.5255C151.039 5.55426 151.555 5.5255 152.066 5.5255C152.693 5.5255 152.974 5.78432 152.983 6.38822C152.983 7.20986 152.983 7.99863 152.983 8.80383V17.5789C152.983 18.4252 152.765 18.6347 151.904 18.6388H150.335C149.482 18.6388 149.401 18.5936 149.124 17.8172C149.082 17.7022 149.035 17.5871 148.983 17.4433ZM148.838 12.1602C148.845 11.7304 148.762 11.3037 148.596 10.905C148.429 10.5062 148.182 10.1433 147.868 9.8375C147.555 9.53165 147.181 9.28893 146.77 9.12346C146.358 8.95799 145.916 8.87308 145.47 8.87367C143.666 8.87367 142.31 10.2458 142.293 12.0986C142.276 13.9514 143.573 15.3399 145.419 15.3482C145.863 15.3637 146.306 15.2926 146.72 15.1392C147.135 14.9859 147.514 14.7534 147.833 14.4557C148.152 14.158 148.406 13.8012 148.579 13.4068C148.752 13.0123 148.84 12.5883 148.838 12.1602Z" fill="black"/>
<path d="M95.5062 13.3146C94.1929 13.3146 92.8796 13.3146 91.5664 13.3146C91.14 13.3146 91.14 13.4502 91.2423 13.7624C91.4373 14.2827 91.7899 14.7346 92.2543 15.0598C92.7187 15.3849 93.2737 15.5684 93.8475 15.5865C94.9978 15.684 96.1422 15.345 97.0369 14.6416C97.1054 14.5672 97.1903 14.5086 97.2854 14.47C97.3804 14.4314 97.4833 14.4138 97.5864 14.4186C97.6894 14.4233 97.7901 14.4502 97.8809 14.4973C97.9718 14.5444 98.0505 14.6106 98.1114 14.6909C98.5378 15.1222 98.9641 15.5536 99.3479 16.0014C99.4157 16.0708 99.4672 16.1536 99.4987 16.244C99.5303 16.3344 99.5411 16.4303 99.5306 16.5251C99.5201 16.6199 99.4884 16.7114 99.4377 16.7933C99.387 16.8752 99.3186 16.9456 99.237 16.9997C98.4531 17.6932 97.5209 18.2127 96.506 18.5217C95.4912 18.8306 94.4185 18.9215 93.3632 18.788C92.308 18.6544 91.296 18.2997 90.3984 17.7487C89.5009 17.1977 88.7395 16.4638 88.1681 15.5988C87.5979 14.7164 87.2489 13.7181 87.1487 12.6832C87.0485 11.6482 87.2 10.605 87.591 9.63623C87.982 8.66746 88.6019 7.79978 89.4014 7.10194C90.201 6.40411 91.1583 5.89531 92.1974 5.6159C96.7256 4.38344 101.224 8.08081 100.653 12.5382C100.652 12.7119 100.585 12.8792 100.465 13.0086C100.345 13.1381 100.179 13.2206 100 13.2407C99.767 13.2862 99.5303 13.3137 99.2925 13.3229C98.0133 13.3229 96.7683 13.3229 95.5062 13.3229V13.3146ZM91.2807 10.3526H96.7256C96.5148 9.80094 96.1291 9.32712 95.6233 8.99829C95.1175 8.66946 94.5171 8.50227 93.9072 8.52039C92.6579 8.5779 91.9117 9.34202 91.2807 10.3526Z" fill="black"/>
<path d="M106.528 7.17698C108.119 5.43921 110.101 5.04894 112.238 5.57479C114.374 6.10063 115.427 7.62888 115.879 9.61724C115.995 10.1577 116.051 10.7086 116.045 11.2605C116.045 13.3639 116.045 15.4659 116.045 17.5666C116.045 18.458 115.87 18.6224 114.941 18.6224C114.207 18.6224 113.474 18.6224 112.741 18.6224C112.114 18.6224 111.956 18.458 111.956 17.85C111.956 15.7179 111.905 13.5816 111.956 11.4454C111.956 10.8254 111.701 10.2309 111.246 9.79248C110.791 9.3541 110.173 9.10783 109.53 9.10783C108.887 9.10783 108.269 9.3541 107.814 9.79248C107.359 10.2309 107.104 10.8254 107.104 11.4454C107.104 13.4995 107.104 15.5536 107.104 17.6077C107.104 18.4539 106.912 18.6347 106.021 18.6347C105.304 18.6347 104.588 18.6347 103.889 18.6347C103.19 18.6347 102.959 18.4005 102.959 17.7432C102.959 13.9801 102.959 10.2198 102.959 6.46216C102.959 5.85004 103.224 5.60355 103.863 5.59122C104.341 5.59122 104.818 5.61176 105.296 5.59122C105.518 5.55547 105.746 5.60581 105.93 5.73126C106.113 5.85672 106.238 6.0471 106.277 6.26086C106.358 6.54843 106.434 6.84832 106.528 7.17698Z" fill="black"/>
<path d="M28.7469 18.8648C27.3679 18.834 26.0291 18.4114 24.8985 17.6501C23.7678 16.8888 22.8958 15.8227 22.3918 14.5856C21.8878 13.3485 21.7744 11.9955 22.0657 10.6964C22.357 9.39739 23.04 8.2102 24.0291 7.28388C25.0182 6.35755 26.2693 5.73337 27.6253 5.48968C28.9812 5.24599 30.3817 5.39364 31.6509 5.91412C32.9201 6.43459 34.0014 7.30469 34.7592 8.41519C35.517 9.5257 35.9174 10.8271 35.9102 12.1561C35.9053 13.0521 35.7153 13.9382 35.3511 14.7627C34.9868 15.5872 34.4558 16.3335 33.7889 16.958C33.1221 17.5825 32.3328 18.0728 31.4671 18.4002C30.6014 18.7276 29.6767 18.8855 28.7469 18.8648ZM28.7469 15.3358C30.5633 15.3358 31.8297 14.0171 31.8254 12.1232C31.8212 10.2294 30.5463 8.86956 28.7768 8.86134C27.0073 8.85313 25.6343 10.2253 25.6215 12.0945C25.6087 13.9637 26.9049 15.3317 28.7469 15.3358Z" fill="black"/>
<path d="M41.6664 7.15647C43.1545 5.53374 45.0178 5.12703 47.0986 5.5132C48.9491 5.8665 50.0833 7.04555 50.7399 8.69704C51.0428 9.51941 51.1873 10.3882 51.1663 11.2605C51.1663 13.3612 51.1663 15.4632 51.1663 17.5666C51.1663 18.4827 51.0086 18.6347 50.079 18.6347H47.9471C47.235 18.6347 47.0943 18.4909 47.0943 17.7761C47.0943 15.6399 47.0943 13.5077 47.0943 11.3715C47.093 10.9982 46.9988 10.6307 46.8196 10.2998C46.6403 9.9689 46.3813 9.68425 46.0643 9.46974C45.7473 9.25523 45.3815 9.11714 44.9976 9.06703C44.6137 9.01693 44.2229 9.05628 43.8581 9.1818C43.3905 9.364 42.9892 9.67531 42.7047 10.0766C42.4202 10.4779 42.2652 10.9513 42.2591 11.4372C42.2591 13.4913 42.2591 15.5741 42.2591 17.6447C42.2591 18.4293 42.0459 18.6347 41.2315 18.6347C40.4981 18.6347 39.769 18.6347 39.0356 18.6347C38.3023 18.6347 38.0976 18.4088 38.0976 17.7515C38.0976 13.9884 38.0976 10.2267 38.0976 6.4663C38.0976 5.84185 38.3492 5.60358 38.993 5.59125C39.4876 5.59125 39.9822 5.59125 40.4768 5.59125C40.6896 5.56897 40.9034 5.62462 41.0756 5.74715C41.2478 5.86968 41.3659 6.05013 41.4063 6.25266L41.6664 7.15647Z" fill="black"/>
<path d="M125.298 18.8689C124.356 18.8735 123.422 18.6949 122.554 18.344C121.685 17.9931 120.899 17.477 120.242 16.8266C119.585 16.1761 119.071 15.4047 118.73 14.5584C118.39 13.7122 118.23 12.8085 118.261 11.9013C118.291 10.9942 118.511 10.1023 118.907 9.27899C119.304 8.45566 119.868 7.71781 120.567 7.10956C121.267 6.50131 122.086 6.03516 122.976 5.73898C123.867 5.44281 124.81 5.3227 125.75 5.38582C127.028 5.46017 128.265 5.85221 129.34 6.52379C129.924 6.89763 130.005 7.22629 129.66 7.79733C129.395 8.2369 129.127 8.67648 128.854 9.10784C128.393 9.83498 128.12 9.90072 127.366 9.46936C126.283 8.84902 125.161 8.60252 123.955 9.15302C122.351 9.89249 121.69 12.0288 122.543 13.7213C123.306 15.2249 125.174 15.7754 126.828 14.9538C128.223 14.28 128.223 14.28 129.118 15.5454C129.34 15.8576 129.545 16.1698 129.775 16.4861C130.099 16.9627 130.06 17.1599 129.574 17.5091C128.332 18.3825 126.836 18.8582 125.298 18.8689Z" fill="black"/>
<path d="M59.3486 13.0763C60.0309 11.0222 60.6832 9.02566 61.3399 7.04552C61.8856 5.3776 61.7407 5.60766 63.3481 5.59533H65.2925C66.0429 5.59533 66.2134 5.84592 65.9235 6.51145C64.9513 8.72439 63.9749 10.9387 62.9942 13.1544C62.3035 14.7196 61.6 16.2807 60.9305 17.8582C60.8566 18.1095 60.6927 18.3273 60.4679 18.4732C60.2431 18.6191 59.972 18.6836 59.7025 18.6552C57.6388 18.6265 58.0695 18.7538 57.383 17.1804C55.8437 13.6843 54.3471 10.1718 52.842 6.65935C52.5009 5.86647 52.6885 5.59533 53.5668 5.59533H55.9205C56.6624 5.59533 56.8074 5.69803 57.0334 6.35124C57.7497 8.44915 58.4603 10.5484 59.1653 12.6491C59.2122 12.7559 59.2634 12.8627 59.3486 13.0763Z" fill="black"/>
<path d="M80.0113 12.9777C80.7532 10.7388 81.478 8.5409 82.2072 6.34713C82.4246 5.68571 82.5568 5.59534 83.2646 5.59534H85.8698C86.6927 5.59534 86.8462 5.82949 86.5264 6.56075C85.5543 8.77369 84.5793 10.988 83.6014 13.2037C82.9107 14.7689 82.2072 16.33 81.5377 17.9034C81.4669 18.1398 81.3117 18.3444 81.0995 18.4812C80.8873 18.6181 80.6317 18.6782 80.378 18.6511C78.3313 18.6183 78.7236 18.8072 77.9945 17.1311C76.4765 13.6446 74.9671 10.1554 73.4663 6.66345C73.1294 5.8829 73.3298 5.59944 74.1996 5.59534C75.0012 5.59534 75.8029 5.59534 76.6045 5.59534C76.8415 5.56366 77.0821 5.62045 77.2771 5.75409C77.4721 5.88774 77.6067 6.08814 77.6534 6.31427C78.3356 8.3889 79.0519 10.4512 79.7554 12.5176C79.7891 12.6928 79.8785 12.8537 80.0113 12.9777Z" fill="black"/>
<path d="M67.5822 12.1315C67.5822 10.291 67.5822 8.45464 67.5822 6.61418C67.5822 5.79254 67.7996 5.59535 68.6396 5.59535H70.7374C70.8777 5.57526 71.021 5.58711 71.1557 5.62997C71.2904 5.67283 71.4128 5.74549 71.5131 5.84214C71.6134 5.93879 71.6889 6.05673 71.7333 6.18652C71.7778 6.31631 71.7901 6.45433 71.7693 6.58953V17.6816C71.7693 18.4129 71.5305 18.6429 70.7545 18.647C69.9784 18.6512 69.2579 18.647 68.5074 18.647C67.757 18.647 67.5864 18.417 67.5822 17.7556C67.5779 15.8863 67.5822 14.0048 67.5822 12.1315Z" fill="black"/>
<path d="M132.035 12.1109C132.035 10.2705 132.035 8.41356 132.035 6.59364C132.035 5.772 132.226 5.59535 133.045 5.59535C133.757 5.59535 134.474 5.59535 135.177 5.59535C135.314 5.57745 135.453 5.59036 135.584 5.63309C135.714 5.67582 135.833 5.74719 135.93 5.84158C136.027 5.93597 136.1 6.0508 136.143 6.17703C136.187 6.30325 136.199 6.43743 136.179 6.56899C136.179 10.28 136.179 13.9897 136.179 17.6981C136.179 18.417 135.945 18.6347 135.198 18.6429C134.452 18.6511 133.698 18.6429 132.951 18.6429C132.205 18.6429 132.022 18.4375 132.022 17.7227C132.03 15.8535 132.035 13.9801 132.035 12.1109Z" fill="black"/>
<path d="M69.6629 0.402606C70.0893 0.402606 70.5157 0.402606 70.9421 0.402606C71.5092 0.402606 71.7607 0.640882 71.7693 1.17495C71.7693 1.82815 71.7693 2.48546 71.7693 3.13866C71.7749 3.26164 71.7536 3.3844 71.7067 3.49891C71.6598 3.61342 71.5883 3.7171 71.4969 3.80318C71.4056 3.88925 71.2964 3.9558 71.1766 3.99844C71.0567 4.04109 70.9288 4.05889 70.8013 4.05067H68.4562C67.8763 4.05067 67.6035 3.80007 67.6035 3.22904C67.6035 2.52243 67.6035 1.81992 67.6035 1.11743C67.6035 0.591578 67.8508 0.394386 68.4051 0.386169L69.6629 0.402606Z" fill="black"/>
<path d="M134.081 0.402606C134.508 0.402606 134.964 0.402606 135.407 0.402606C135.928 0.402606 136.171 0.620335 136.188 1.11743C136.209 1.80349 136.217 2.49367 136.188 3.17152C136.189 3.2913 136.165 3.41009 136.116 3.52019C136.067 3.63028 135.994 3.72922 135.903 3.81057C135.812 3.89193 135.704 3.95388 135.586 3.99241C135.468 4.03095 135.344 4.04519 135.22 4.03424H132.866C132.307 4.03424 132.047 3.79186 132.039 3.2578C132.039 2.53476 132.039 1.81171 132.039 1.09278C132.039 0.583363 132.256 0.394386 132.802 0.386169C133.228 0.394386 133.655 0.402606 134.081 0.402606Z" fill="black"/>
</g>
<defs>
<clipPath id="clip0_24_110">
<rect width="153" height="24" fill="white"/>
</clipPath>
</defs>
</svg>
