<?xml version="1.0" encoding="utf-8"?>
<!-- Generator: Adobe Illustrator 26.3.1, SVG Export Plug-In . SVG Version: 6.00 Build 0)  -->
<svg version="1.1" id="Capa_1" xmlns="http://www.w3.org/2000/svg" xmlns:xlink="http://www.w3.org/1999/xlink" x="0px" y="0px"
	 viewBox="0 0 129.6 65.9" style="enable-background:new 0 0 129.6 65.9;" xml:space="preserve">
<style type="text/css">
	.st0{fill:url(#SVGID_1_);}
	.st1{fill:url(#SVGID_00000069355658588139415610000002198519053526328487_);}
	.st2{fill:url(#SVGID_00000026143905962754606020000013380608254404479108_);}
	.st3{fill:url(#SVGID_00000034074744469835881850000013505898091887899321_);}
</style>
<g>
	<path d="M14.4,54.1H12l-0.5,1.3h-0.9l2-5.5h0.9l2,5.5h-0.9L14.4,54.1z M14.1,53.4l-0.9-2.6l-0.9,2.6H14.1z"/>
	<path d="M20.8,53.9c0,0.8-0.5,1.6-1.9,1.6c-0.8,0-1.7-0.4-2-1.2l0.8-0.2c0.1,0.4,0.5,0.7,1.2,0.7c0.6,0,1.1-0.3,1.1-0.8
		c0-0.7-0.7-0.8-1.5-1c-1.1-0.3-1.4-0.9-1.4-1.6c0-0.9,0.8-1.6,1.8-1.6c0.8,0,1.4,0.4,1.7,1.2l-0.8,0.2c-0.1-0.3-0.4-0.6-1-0.6
		c-0.5,0-1,0.3-1,0.9c0,0.7,0.7,0.8,1.4,1C20.3,52.6,20.8,53,20.8,53.9z"/>
	<path d="M27.8,52.7c0,1.6-1.2,2.9-2.8,2.9c-1.6,0-2.8-1.2-2.8-2.9c0-1.6,1.2-2.9,2.8-2.9C26.6,49.8,27.8,51.1,27.8,52.7z M27,52.7
		c0-1.1-0.7-2.1-2-2.1s-2,1-2,2.1s0.7,2.1,2,2.1S27,53.8,27,52.7z"/>
	<path d="M33.6,54.1l0.7,0.4c-0.5,0.6-1.3,1-2.2,1c-1.6,0-2.8-1.2-2.8-2.9c0-1.6,1.2-2.9,2.8-2.9c0.9,0,1.7,0.4,2.2,1l-0.7,0.4
		c-0.3-0.4-0.9-0.7-1.5-0.7c-1.3,0-2,1-2,2.1s0.7,2.1,2,2.1C32.7,54.8,33.3,54.5,33.6,54.1z"/>
	<path d="M36.6,49.9v5.5h-0.8v-5.5H36.6z"/>
	<path d="M41.8,54.1h-2.4l-0.5,1.3h-0.9l2-5.5H41l2,5.5h-0.9L41.8,54.1z M41.5,53.4l-0.9-2.6l-0.9,2.6H41.5z"/>
	<path d="M48.7,54.1l0.7,0.4c-0.5,0.6-1.3,1-2.2,1c-1.6,0-2.8-1.2-2.8-2.9c0-1.6,1.2-2.9,2.8-2.9c0.9,0,1.7,0.4,2.2,1l-0.7,0.4
		c-0.3-0.4-0.9-0.7-1.5-0.7c-1.3,0-2,1-2,2.1s0.7,2.1,2,2.1C47.8,54.8,48.3,54.5,48.7,54.1z"/>
	<path d="M51.7,49.9v5.5h-0.8v-5.5H51.7z"/>
	<path d="M59,52.7c0,1.6-1.2,2.9-2.8,2.9c-1.6,0-2.8-1.2-2.8-2.9c0-1.6,1.2-2.9,2.8-2.9C57.8,49.8,59,51.1,59,52.7z M58.2,52.7
		c0-1.1-0.7-2.1-2-2.1s-2,1-2,2.1s0.7,2.1,2,2.1S58.2,53.8,58.2,52.7z M57.1,48.2l-0.8,1.1h-0.5l0.5-1.1H57.1z"/>
	<path d="M65,49.9v5.5h-0.7l-2.9-4.1v4.1h-0.8v-5.5h0.7l2.9,4.1v-4.1H65z"/>
	<path d="M72.9,54.7v0.7h-3.1v-5.5h3v0.7h-2.2v1.6h2.1V53h-2.1v1.8H72.9z"/>
	<path d="M79.1,52.7c0,1.6-1,2.8-2.9,2.8h-1.6v-5.5h1.6C78,49.9,79.1,51.1,79.1,52.7z M78.3,52.7c0-1.2-0.8-2-2.1-2h-0.8v4.1h0.8
		C77.5,54.7,78.3,53.9,78.3,52.7z"/>
	<path d="M84.9,49.9v3.4c0,1.4-0.8,2.2-2.1,2.2c-1.3,0-2.1-0.8-2.1-2.2v-3.4h0.8v3.3c0,1.2,0.5,1.6,1.3,1.6c0.8,0,1.3-0.4,1.3-1.6
		v-3.3H84.9z"/>
	<path d="M91,54.1l0.7,0.4c-0.5,0.6-1.3,1-2.2,1c-1.6,0-2.8-1.2-2.8-2.9c0-1.6,1.2-2.9,2.8-2.9c0.9,0,1.7,0.4,2.2,1L91,51.3
		c-0.3-0.4-0.9-0.7-1.5-0.7c-1.3,0-2,1-2,2.1s0.7,2.1,2,2.1C90.1,54.8,90.6,54.5,91,54.1z"/>
	<path d="M96.4,54.1h-2.4l-0.5,1.3h-0.9l2-5.5h0.9l2,5.5h-0.9L96.4,54.1z M96.2,53.4l-0.9-2.6l-0.9,2.6H96.2z"/>
	<path d="M102.6,50.7h-1.4v4.8h-0.8v-4.8H99v-0.7h3.6V50.7z"/>
	<path d="M105,49.9v5.5h-0.8v-5.5H105z"/>
	<path d="M111.5,49.9l-2.1,5.5h-0.9l-2.1-5.5h0.9l1.6,4.7l1.7-4.7H111.5z"/>
	<path d="M116.3,54.1h-2.4l-0.5,1.3h-0.9l2-5.5h0.9l2,5.5h-0.9L116.3,54.1z M116,53.4l-0.9-2.6l-0.9,2.6H116z"/>
</g>
<g>
	<path d="M5.6,63.8c0,0.2,0,0.4-0.1,0.6c-0.1,0.2-0.3,0.5-0.5,0.7s-0.5,0.4-0.8,0.5c-0.3,0.1-0.7,0.2-1.1,0.2c-0.3,0-0.6,0-0.9-0.1
		s-0.5-0.2-0.7-0.3S1,65.2,0.8,65c-0.2-0.2-0.3-0.4-0.4-0.7s-0.2-0.5-0.3-0.8C0,63.3,0,63,0,62.7c0-0.5,0.1-1,0.2-1.3
		c0.1-0.4,0.4-0.7,0.6-1s0.6-0.5,1-0.6s0.8-0.2,1.2-0.2c0.5,0,1,0.1,1.3,0.3s0.7,0.5,0.9,0.7c0.2,0.3,0.3,0.6,0.3,0.8
		c0,0.1-0.1,0.3-0.2,0.4c-0.1,0.1-0.2,0.2-0.4,0.2c-0.2,0-0.3,0-0.4-0.1s-0.2-0.2-0.3-0.4c-0.2-0.3-0.4-0.5-0.6-0.7
		c-0.2-0.2-0.5-0.2-0.8-0.2c-0.5,0-0.9,0.2-1.2,0.6c-0.3,0.4-0.5,1-0.5,1.7c0,0.5,0.1,0.9,0.2,1.2c0.1,0.3,0.3,0.6,0.6,0.7
		s0.5,0.2,0.9,0.2c0.4,0,0.7-0.1,0.9-0.3s0.4-0.4,0.6-0.8c0.1-0.2,0.1-0.3,0.2-0.4c0.1-0.1,0.2-0.2,0.4-0.2c0.2,0,0.3,0.1,0.4,0.2
		C5.5,63.5,5.6,63.7,5.6,63.8z"/>
	<path d="M9.2,59.4c0.6,0,1.2,0.1,1.7,0.4c0.5,0.3,0.8,0.6,1.1,1.1c0.2,0.5,0.4,1.1,0.4,1.7c0,0.5-0.1,0.9-0.2,1.3
		c-0.1,0.4-0.3,0.7-0.6,1c-0.3,0.3-0.6,0.5-1,0.7s-0.8,0.2-1.3,0.2c-0.5,0-0.9-0.1-1.3-0.2c-0.4-0.2-0.7-0.4-1-0.7
		c-0.3-0.3-0.5-0.6-0.6-1c-0.1-0.4-0.2-0.8-0.2-1.3c0-0.5,0.1-0.9,0.2-1.3s0.3-0.7,0.6-1c0.3-0.3,0.6-0.5,1-0.6
		C8.3,59.5,8.8,59.4,9.2,59.4z M11,62.7c0-0.5-0.1-0.9-0.2-1.2s-0.4-0.6-0.6-0.8c-0.3-0.2-0.6-0.3-0.9-0.3c-0.3,0-0.5,0-0.7,0.1
		S8.1,60.8,8,61c-0.2,0.2-0.3,0.4-0.4,0.7c-0.1,0.3-0.1,0.6-0.1,1c0,0.4,0,0.7,0.1,1c0.1,0.3,0.2,0.5,0.4,0.7
		c0.2,0.2,0.3,0.3,0.6,0.4c0.2,0.1,0.4,0.1,0.7,0.1c0.3,0,0.6-0.1,0.9-0.2c0.3-0.2,0.5-0.4,0.6-0.7C11,63.6,11,63.1,11,62.7z"/>
	<path d="M14.8,60.2l2.4,3.7v-3.7c0-0.2,0.1-0.4,0.2-0.5s0.2-0.2,0.4-0.2c0.2,0,0.3,0.1,0.4,0.2c0.1,0.1,0.2,0.3,0.2,0.5v4.9
		c0,0.5-0.2,0.8-0.7,0.8c-0.1,0-0.2,0-0.3,0c-0.1,0-0.2-0.1-0.3-0.2c-0.1-0.1-0.2-0.2-0.2-0.2c-0.1-0.1-0.1-0.2-0.2-0.3l-2.4-3.6
		v3.7c0,0.2-0.1,0.4-0.2,0.5s-0.3,0.2-0.4,0.2c-0.2,0-0.3-0.1-0.4-0.2c-0.1-0.1-0.2-0.3-0.2-0.5v-4.8c0-0.2,0-0.4,0.1-0.5
		c0.1-0.1,0.1-0.2,0.3-0.3c0.1-0.1,0.3-0.1,0.4-0.1c0.1,0,0.2,0,0.3,0.1c0.1,0,0.2,0.1,0.2,0.1c0.1,0.1,0.1,0.1,0.2,0.2
		C14.7,60,14.8,60.1,14.8,60.2z"/>
	<path d="M20.5,60.3l1.4,4.2l1.4-4.2c0.1-0.2,0.1-0.4,0.2-0.5c0-0.1,0.1-0.2,0.2-0.2c0.1-0.1,0.2-0.1,0.3-0.1c0.1,0,0.2,0,0.3,0.1
		c0.1,0.1,0.2,0.1,0.2,0.2s0.1,0.2,0.1,0.3c0,0.1,0,0.1,0,0.2c0,0.1,0,0.1-0.1,0.2s-0.1,0.1-0.1,0.2L23,64.7
		c-0.1,0.2-0.1,0.3-0.2,0.4c-0.1,0.1-0.1,0.3-0.2,0.4c-0.1,0.1-0.2,0.2-0.3,0.3c-0.1,0.1-0.3,0.1-0.4,0.1s-0.3,0-0.4-0.1
		c-0.1-0.1-0.2-0.2-0.3-0.3c-0.1-0.1-0.1-0.2-0.2-0.4s-0.1-0.3-0.2-0.4l-1.5-4c0-0.1-0.1-0.1-0.1-0.2c0-0.1,0-0.1-0.1-0.2
		c0-0.1,0-0.2,0-0.2c0-0.1,0.1-0.3,0.2-0.4c0.1-0.1,0.3-0.2,0.4-0.2c0.2,0,0.4,0.1,0.5,0.2C20.4,59.8,20.4,60,20.5,60.3z"/>
	<path d="M25.5,65.1v-4.9c0-0.3,0.1-0.4,0.2-0.6c0.1-0.1,0.3-0.2,0.5-0.2c0.2,0,0.3,0.1,0.5,0.2c0.1,0.1,0.2,0.3,0.2,0.6v4.9
		c0,0.3-0.1,0.5-0.2,0.6c-0.1,0.1-0.3,0.2-0.5,0.2c-0.2,0-0.3-0.1-0.4-0.2C25.5,65.6,25.5,65.4,25.5,65.1z"/>
	<path d="M28.9,60.3l1.4,4.2l1.4-4.2c0.1-0.2,0.1-0.4,0.2-0.5c0-0.1,0.1-0.2,0.2-0.2c0.1-0.1,0.2-0.1,0.3-0.1c0.1,0,0.2,0,0.3,0.1
		c0.1,0.1,0.2,0.1,0.2,0.2S33,59.9,33,60c0,0.1,0,0.1,0,0.2c0,0.1,0,0.1-0.1,0.2s-0.1,0.1-0.1,0.2l-1.5,4.1
		c-0.1,0.2-0.1,0.3-0.2,0.4c-0.1,0.1-0.1,0.3-0.2,0.4c-0.1,0.1-0.2,0.2-0.3,0.3c-0.1,0.1-0.3,0.1-0.4,0.1s-0.3,0-0.4-0.1
		c-0.1-0.1-0.2-0.2-0.3-0.3c-0.1-0.1-0.1-0.2-0.2-0.4s-0.1-0.3-0.2-0.4l-1.5-4c0-0.1-0.1-0.1-0.1-0.2c0-0.1,0-0.1-0.1-0.2
		c0-0.1,0-0.2,0-0.2c0-0.1,0.1-0.3,0.2-0.4c0.1-0.1,0.3-0.2,0.4-0.2c0.2,0,0.4,0.1,0.5,0.2C28.7,59.8,28.8,60,28.9,60.3z"/>
	<path d="M37.8,60.5H35v1.5h2.6c0.2,0,0.3,0,0.4,0.1c0.1,0.1,0.1,0.2,0.1,0.3c0,0.1,0,0.3-0.1,0.3C38,63,37.8,63,37.6,63H35v1.8h2.9
		c0.2,0,0.3,0,0.4,0.1c0.1,0.1,0.2,0.2,0.2,0.4c0,0.1-0.1,0.3-0.2,0.4s-0.3,0.1-0.4,0.1h-3.4c-0.3,0-0.5-0.1-0.6-0.2
		c-0.1-0.1-0.2-0.3-0.2-0.6v-4.7c0-0.2,0-0.3,0.1-0.4c0.1-0.1,0.1-0.2,0.3-0.3c0.1-0.1,0.3-0.1,0.4-0.1h3.3c0.2,0,0.4,0,0.4,0.1
		c0.1,0.1,0.1,0.2,0.1,0.4c0,0.1,0,0.3-0.1,0.4C38.2,60.5,38,60.5,37.8,60.5z"/>
	<path d="M41,60.2l2.4,3.7v-3.7c0-0.2,0.1-0.4,0.2-0.5s0.2-0.2,0.4-0.2c0.2,0,0.3,0.1,0.4,0.2c0.1,0.1,0.2,0.3,0.2,0.5v4.9
		c0,0.5-0.2,0.8-0.7,0.8c-0.1,0-0.2,0-0.3,0c-0.1,0-0.2-0.1-0.3-0.2c-0.1-0.1-0.2-0.2-0.2-0.2c-0.1-0.1-0.1-0.2-0.2-0.3l-2.4-3.6
		v3.7c0,0.2-0.1,0.4-0.2,0.5s-0.3,0.2-0.4,0.2c-0.2,0-0.3-0.1-0.4-0.2c-0.1-0.1-0.2-0.3-0.2-0.5v-4.8c0-0.2,0-0.4,0.1-0.5
		c0.1-0.1,0.1-0.2,0.3-0.3c0.1-0.1,0.3-0.1,0.4-0.1c0.1,0,0.2,0,0.3,0.1c0.1,0,0.2,0.1,0.2,0.1c0.1,0.1,0.1,0.1,0.2,0.2
		C40.9,60,40.9,60.1,41,60.2z"/>
	<path d="M51.1,63.8c0,0.2,0,0.4-0.1,0.6c-0.1,0.2-0.3,0.5-0.5,0.7s-0.5,0.4-0.8,0.5c-0.3,0.1-0.7,0.2-1.1,0.2c-0.3,0-0.6,0-0.9-0.1
		s-0.5-0.2-0.7-0.3s-0.4-0.3-0.6-0.5c-0.2-0.2-0.3-0.4-0.4-0.7s-0.2-0.5-0.3-0.8c-0.1-0.3-0.1-0.6-0.1-0.9c0-0.5,0.1-1,0.2-1.3
		c0.1-0.4,0.4-0.7,0.6-1s0.6-0.5,1-0.6s0.8-0.2,1.2-0.2c0.5,0,1,0.1,1.3,0.3s0.7,0.5,0.9,0.7c0.2,0.3,0.3,0.6,0.3,0.8
		c0,0.1-0.1,0.3-0.2,0.4c-0.1,0.1-0.2,0.2-0.4,0.2c-0.2,0-0.3,0-0.4-0.1s-0.2-0.2-0.3-0.4c-0.2-0.3-0.4-0.5-0.6-0.7
		c-0.2-0.2-0.5-0.2-0.8-0.2c-0.5,0-0.9,0.2-1.2,0.6c-0.3,0.4-0.5,1-0.5,1.7c0,0.5,0.1,0.9,0.2,1.2c0.1,0.3,0.3,0.6,0.6,0.7
		s0.5,0.2,0.9,0.2c0.4,0,0.7-0.1,0.9-0.3s0.4-0.4,0.6-0.8c0.1-0.2,0.1-0.3,0.2-0.4c0.1-0.1,0.2-0.2,0.4-0.2c0.2,0,0.3,0.1,0.4,0.2
		C51,63.5,51.1,63.7,51.1,63.8z"/>
	<path d="M52.1,65.1v-4.9c0-0.3,0.1-0.4,0.2-0.6c0.1-0.1,0.3-0.2,0.5-0.2c0.2,0,0.3,0.1,0.5,0.2c0.1,0.1,0.2,0.3,0.2,0.6v4.9
		c0,0.3-0.1,0.5-0.2,0.6c-0.1,0.1-0.3,0.2-0.5,0.2c-0.2,0-0.3-0.1-0.4-0.2C52.1,65.6,52.1,65.4,52.1,65.1z"/>
	<path d="M58.5,65.1l-0.3-0.8h-2.5l-0.3,0.8c-0.1,0.3-0.2,0.5-0.3,0.6c-0.1,0.1-0.2,0.2-0.4,0.2c-0.2,0-0.3-0.1-0.4-0.2
		c-0.1-0.1-0.2-0.2-0.2-0.4c0-0.1,0-0.2,0-0.3s0.1-0.2,0.1-0.4l1.6-4.1c0-0.1,0.1-0.3,0.2-0.4s0.1-0.3,0.2-0.4s0.2-0.2,0.3-0.3
		c0.1-0.1,0.3-0.1,0.4-0.1c0.2,0,0.3,0,0.4,0.1c0.1,0.1,0.2,0.2,0.3,0.3s0.1,0.2,0.2,0.3s0.1,0.3,0.2,0.5l1.6,4
		c0.1,0.3,0.2,0.5,0.2,0.7c0,0.1-0.1,0.3-0.2,0.4c-0.1,0.1-0.3,0.2-0.4,0.2c-0.1,0-0.2,0-0.3-0.1s-0.1-0.1-0.2-0.1
		c0-0.1-0.1-0.2-0.2-0.3C58.6,65.3,58.6,65.2,58.5,65.1z M56,63.4h1.9l-0.9-2.6L56,63.4z"/>
	<path d="M66.7,60.5h-2.8v1.5h2.6c0.2,0,0.3,0,0.4,0.1c0.1,0.1,0.1,0.2,0.1,0.3c0,0.1,0,0.3-0.1,0.3C66.8,63,66.6,63,66.5,63h-2.6
		v1.8h2.9c0.2,0,0.3,0,0.4,0.1c0.1,0.1,0.2,0.2,0.2,0.4c0,0.1-0.1,0.3-0.2,0.4s-0.3,0.1-0.4,0.1h-3.4c-0.3,0-0.5-0.1-0.6-0.2
		c-0.1-0.1-0.2-0.3-0.2-0.6v-4.7c0-0.2,0-0.3,0.1-0.4c0.1-0.1,0.1-0.2,0.3-0.3c0.1-0.1,0.3-0.1,0.4-0.1h3.3c0.2,0,0.4,0,0.4,0.1
		c0.1,0.1,0.1,0.2,0.1,0.4c0,0.1,0,0.3-0.1,0.4C67,60.5,66.9,60.5,66.7,60.5z"/>
	<path d="M69.8,60.2l2.4,3.7v-3.7c0-0.2,0.1-0.4,0.2-0.5s0.2-0.2,0.4-0.2c0.2,0,0.3,0.1,0.4,0.2c0.1,0.1,0.2,0.3,0.2,0.5v4.9
		c0,0.5-0.2,0.8-0.7,0.8c-0.1,0-0.2,0-0.3,0c-0.1,0-0.2-0.1-0.3-0.2c-0.1-0.1-0.2-0.2-0.2-0.2c-0.1-0.1-0.1-0.2-0.2-0.3l-2.4-3.6
		v3.7c0,0.2-0.1,0.4-0.2,0.5s-0.3,0.2-0.4,0.2c-0.2,0-0.3-0.1-0.4-0.2c-0.1-0.1-0.2-0.3-0.2-0.5v-4.8c0-0.2,0-0.4,0.1-0.5
		c0.1-0.1,0.1-0.2,0.3-0.3c0.1-0.1,0.3-0.1,0.4-0.1c0.1,0,0.2,0,0.3,0.1c0.1,0,0.2,0.1,0.2,0.1c0.1,0.1,0.1,0.1,0.2,0.2
		C69.7,60,69.8,60.1,69.8,60.2z"/>
	<path d="M77.8,60.2v4.5h2.6c0.2,0,0.4,0,0.5,0.1c0.1,0.1,0.2,0.2,0.2,0.4c0,0.2-0.1,0.3-0.2,0.4c-0.1,0.1-0.3,0.1-0.5,0.1h-3.1
		c-0.3,0-0.5-0.1-0.6-0.2c-0.1-0.1-0.2-0.3-0.2-0.6v-4.8c0-0.3,0.1-0.4,0.2-0.6c0.1-0.1,0.3-0.2,0.5-0.2c0.2,0,0.3,0.1,0.5,0.2
		C77.7,59.8,77.8,60,77.8,60.2z"/>
	<path d="M85.6,65.1l-0.3-0.8h-2.5l-0.3,0.8c-0.1,0.3-0.2,0.5-0.3,0.6c-0.1,0.1-0.2,0.2-0.4,0.2c-0.2,0-0.3-0.1-0.4-0.2
		c-0.1-0.1-0.2-0.2-0.2-0.4c0-0.1,0-0.2,0-0.3s0.1-0.2,0.1-0.4l1.6-4.1c0-0.1,0.1-0.3,0.2-0.4s0.1-0.3,0.2-0.4s0.2-0.2,0.3-0.3
		c0.1-0.1,0.3-0.1,0.4-0.1c0.2,0,0.3,0,0.4,0.1c0.1,0.1,0.2,0.2,0.3,0.3s0.1,0.2,0.2,0.3s0.1,0.3,0.2,0.5l1.6,4
		c0.1,0.3,0.2,0.5,0.2,0.7c0,0.1-0.1,0.3-0.2,0.4c-0.1,0.1-0.3,0.2-0.4,0.2c-0.1,0-0.2,0-0.3-0.1s-0.1-0.1-0.2-0.1
		c0-0.1-0.1-0.2-0.2-0.3C85.7,65.3,85.7,65.2,85.6,65.1z M83.1,63.4H85L84,60.8L83.1,63.4z"/>
	<path d="M93.8,60.5h-2.8v1.5h2.6c0.2,0,0.3,0,0.4,0.1c0.1,0.1,0.1,0.2,0.1,0.3c0,0.1,0,0.3-0.1,0.3C93.9,63,93.8,63,93.6,63h-2.6
		v1.8h2.9c0.2,0,0.3,0,0.4,0.1c0.1,0.1,0.2,0.2,0.2,0.4c0,0.1-0.1,0.3-0.2,0.4s-0.3,0.1-0.4,0.1h-3.4c-0.3,0-0.5-0.1-0.6-0.2
		c-0.1-0.1-0.2-0.3-0.2-0.6v-4.7c0-0.2,0-0.3,0.1-0.4c0.1-0.1,0.1-0.2,0.3-0.3c0.1-0.1,0.3-0.1,0.4-0.1h3.3c0.2,0,0.4,0,0.4,0.1
		c0.1,0.1,0.1,0.2,0.1,0.4c0,0.1,0,0.3-0.1,0.4C94.1,60.5,94,60.5,93.8,60.5z"/>
	<path d="M100,63.9c0,0.4-0.1,0.7-0.3,1s-0.5,0.5-0.9,0.7c-0.4,0.2-0.8,0.3-1.3,0.3c-0.6,0-1.1-0.1-1.5-0.3
		c-0.3-0.2-0.5-0.4-0.7-0.7c-0.2-0.3-0.3-0.6-0.3-0.8c0-0.2,0.1-0.3,0.2-0.4c0.1-0.1,0.2-0.2,0.4-0.2c0.1,0,0.2,0,0.3,0.1
		c0.1,0.1,0.2,0.2,0.2,0.4c0.1,0.2,0.2,0.4,0.3,0.5c0.1,0.1,0.2,0.2,0.4,0.3c0.2,0.1,0.4,0.1,0.7,0.1c0.4,0,0.7-0.1,0.9-0.3
		c0.2-0.2,0.4-0.4,0.4-0.7c0-0.2-0.1-0.4-0.2-0.5c-0.1-0.1-0.3-0.2-0.5-0.3c-0.2-0.1-0.5-0.1-0.8-0.2c-0.4-0.1-0.8-0.2-1.1-0.4
		c-0.3-0.1-0.5-0.3-0.7-0.6c-0.2-0.2-0.3-0.5-0.3-0.9c0-0.3,0.1-0.6,0.3-0.9c0.2-0.3,0.5-0.5,0.8-0.6c0.4-0.1,0.8-0.2,1.3-0.2
		c0.4,0,0.7,0,1,0.1s0.5,0.2,0.7,0.4c0.2,0.2,0.3,0.3,0.4,0.5c0.1,0.2,0.1,0.3,0.1,0.5c0,0.2-0.1,0.3-0.2,0.4
		c-0.1,0.1-0.2,0.2-0.4,0.2c-0.1,0-0.3,0-0.3-0.1s-0.2-0.2-0.2-0.4c-0.1-0.2-0.2-0.4-0.4-0.6c-0.2-0.1-0.4-0.2-0.8-0.2
		c-0.3,0-0.6,0.1-0.8,0.2c-0.2,0.1-0.3,0.3-0.3,0.5c0,0.1,0,0.2,0.1,0.3s0.2,0.2,0.3,0.2s0.2,0.1,0.4,0.2c0.1,0,0.3,0.1,0.6,0.2
		c0.4,0.1,0.7,0.2,1,0.3c0.3,0.1,0.5,0.2,0.7,0.4c0.2,0.1,0.4,0.3,0.5,0.5C100,63.3,100,63.6,100,63.9z"/>
	<path d="M106.2,63.8c0,0.2,0,0.4-0.1,0.6c-0.1,0.2-0.3,0.5-0.5,0.7s-0.5,0.4-0.8,0.5c-0.3,0.1-0.7,0.2-1.1,0.2
		c-0.3,0-0.6,0-0.9-0.1s-0.5-0.2-0.7-0.3s-0.4-0.3-0.6-0.5c-0.2-0.2-0.3-0.4-0.4-0.7s-0.2-0.5-0.3-0.8c-0.1-0.3-0.1-0.6-0.1-0.9
		c0-0.5,0.1-1,0.2-1.3c0.1-0.4,0.4-0.7,0.6-1s0.6-0.5,1-0.6s0.8-0.2,1.2-0.2c0.5,0,1,0.1,1.3,0.3s0.7,0.5,0.9,0.7
		c0.2,0.3,0.3,0.6,0.3,0.8c0,0.1-0.1,0.3-0.2,0.4c-0.1,0.1-0.2,0.2-0.4,0.2c-0.2,0-0.3,0-0.4-0.1s-0.2-0.2-0.3-0.4
		c-0.2-0.3-0.4-0.5-0.6-0.7c-0.2-0.2-0.5-0.2-0.8-0.2c-0.5,0-0.9,0.2-1.2,0.6c-0.3,0.4-0.5,1-0.5,1.7c0,0.5,0.1,0.9,0.2,1.2
		c0.1,0.3,0.3,0.6,0.6,0.7s0.5,0.2,0.9,0.2c0.4,0,0.7-0.1,0.9-0.3s0.4-0.4,0.6-0.8c0.1-0.2,0.1-0.3,0.2-0.4c0.1-0.1,0.2-0.2,0.4-0.2
		c0.2,0,0.3,0.1,0.4,0.2C106.2,63.5,106.2,63.7,106.2,63.8z"/>
	<path d="M107.1,63.2v-3c0-0.3,0.1-0.4,0.2-0.6c0.1-0.1,0.3-0.2,0.5-0.2c0.2,0,0.4,0.1,0.5,0.2c0.1,0.1,0.2,0.3,0.2,0.6v3.1
		c0,0.3,0,0.6,0.1,0.9s0.2,0.4,0.4,0.5c0.2,0.1,0.5,0.2,0.8,0.2c0.5,0,0.8-0.1,1-0.4c0.2-0.3,0.3-0.7,0.3-1.2v-3.1
		c0-0.3,0.1-0.5,0.2-0.6s0.3-0.2,0.5-0.2c0.2,0,0.3,0.1,0.5,0.2c0.1,0.1,0.2,0.3,0.2,0.6v3c0,0.5,0,0.9-0.1,1.2s-0.3,0.6-0.5,0.9
		c-0.2,0.2-0.5,0.4-0.8,0.5c-0.3,0.1-0.7,0.1-1.1,0.1c-0.5,0-0.9-0.1-1.2-0.2c-0.3-0.1-0.6-0.3-0.8-0.5c-0.2-0.2-0.4-0.5-0.5-0.8
		C107.2,64.1,107.1,63.7,107.1,63.2z"/>
	<path d="M117.7,60.5h-2.8v1.5h2.6c0.2,0,0.3,0,0.4,0.1c0.1,0.1,0.1,0.2,0.1,0.3c0,0.1,0,0.3-0.1,0.3c-0.1,0.1-0.2,0.1-0.4,0.1h-2.6
		v1.8h2.9c0.2,0,0.3,0,0.4,0.1c0.1,0.1,0.2,0.2,0.2,0.4c0,0.1-0.1,0.3-0.2,0.4s-0.3,0.1-0.4,0.1h-3.4c-0.3,0-0.5-0.1-0.6-0.2
		c-0.1-0.1-0.2-0.3-0.2-0.6v-4.7c0-0.2,0-0.3,0.1-0.4c0.1-0.1,0.1-0.2,0.3-0.3c0.1-0.1,0.3-0.1,0.4-0.1h3.3c0.2,0,0.4,0,0.4,0.1
		c0.1,0.1,0.1,0.2,0.1,0.4c0,0.1,0,0.3-0.1,0.4C118,60.5,117.9,60.5,117.7,60.5z"/>
	<path d="M120.4,60.2v4.5h2.6c0.2,0,0.4,0,0.5,0.1c0.1,0.1,0.2,0.2,0.2,0.4c0,0.2-0.1,0.3-0.2,0.4c-0.1,0.1-0.3,0.1-0.5,0.1h-3.1
		c-0.3,0-0.5-0.1-0.6-0.2c-0.1-0.1-0.2-0.3-0.2-0.6v-4.8c0-0.3,0.1-0.4,0.2-0.6c0.1-0.1,0.3-0.2,0.5-0.2c0.2,0,0.3,0.1,0.5,0.2
		C120.4,59.8,120.4,60,120.4,60.2z"/>
	<path d="M128.2,65.1l-0.3-0.8h-2.5l-0.3,0.8c-0.1,0.3-0.2,0.5-0.3,0.6c-0.1,0.1-0.2,0.2-0.4,0.2c-0.2,0-0.3-0.1-0.4-0.2
		c-0.1-0.1-0.2-0.2-0.2-0.4c0-0.1,0-0.2,0-0.3s0.1-0.2,0.1-0.4l1.6-4.1c0-0.1,0.1-0.3,0.2-0.4s0.1-0.3,0.2-0.4s0.2-0.2,0.3-0.3
		c0.1-0.1,0.3-0.1,0.4-0.1c0.2,0,0.3,0,0.4,0.1c0.1,0.1,0.2,0.2,0.3,0.3s0.1,0.2,0.2,0.3s0.1,0.3,0.2,0.5l1.6,4
		c0.1,0.3,0.2,0.5,0.2,0.7c0,0.1-0.1,0.3-0.2,0.4c-0.1,0.1-0.3,0.2-0.4,0.2c-0.1,0-0.2,0-0.3-0.1s-0.1-0.1-0.2-0.1
		c0-0.1-0.1-0.2-0.2-0.3C128.3,65.3,128.3,65.2,128.2,65.1z M125.7,63.4h1.9l-0.9-2.6L125.7,63.4z"/>
</g>
<linearGradient id="SVGID_1_" gradientUnits="userSpaceOnUse" x1="0.1627" y1="21.4288" x2="56.8814" y2="21.4288">
	<stop  offset="0" style="stop-color:#058FEE"/>
	<stop  offset="1" style="stop-color:#003E6E"/>
</linearGradient>
<path class="st0" d="M16.8,4.8l-16.6,38h43.1v-9.7H15l9.2-20.9L30,25.7h22c2.7,0,4.9-2.2,4.9-4.9c0-2.7-2.2-4.9-4.9-4.9H36.4L31.6,5
	C30.4,2.3,28,0.4,25.1,0c-0.3,0-0.6,0-0.9,0C21,0,18.1,1.9,16.8,4.8"/>
<linearGradient id="SVGID_00000142160266927223295820000013134696635252830641_" gradientUnits="userSpaceOnUse" x1="36.3604" y1="21.4293" x2="74.3434" y2="21.4293">
	<stop  offset="0" style="stop-color:#62F274"/>
	<stop  offset="1" style="stop-color:#135601"/>
</linearGradient>
<path style="fill:url(#SVGID_00000142160266927223295820000013134696635252830641_);" d="M45.7,0c-5.2,0-9.3,4.2-9.3,9.3v33.6h38
	v-9.7H46.1v-24h12.3c2.5,0,4.6-2.1,4.6-4.6S60.9,0,58.4,0H45.7z"/>
<linearGradient id="SVGID_00000039827057734340996430000002545042033658581682_" gradientUnits="userSpaceOnUse" x1="94.4843" y1="21.4293" x2="128.8039" y2="21.4293">
	<stop  offset="0" style="stop-color:#E4137F"/>
	<stop  offset="1" style="stop-color:#B50039"/>
</linearGradient>
<path style="fill:url(#SVGID_00000039827057734340996430000002545042033658581682_);" d="M103.8,0c-5.2,0-9.3,4.2-9.3,9.3v33.6H124
	c2.7,0,4.8-2.2,4.8-4.8c0-2.7-2.2-4.8-4.8-4.8h-19.8v-24h12.3c2.5,0,4.6-2.1,4.6-4.6S119,0,116.5,0H103.8z"/>
<linearGradient id="SVGID_00000031193108476257115490000007685381759840243861_" gradientUnits="userSpaceOnUse" x1="65.4226" y1="21.4288" x2="115.1379" y2="21.4288">
	<stop  offset="0" style="stop-color:#FCAC04"/>
	<stop  offset="1" style="stop-color:#C75101"/>
</linearGradient>
<path style="fill:url(#SVGID_00000031193108476257115490000007685381759840243861_);" d="M77.1,0c-6.5,0-11.7,5.2-11.7,11.7v31.2
	h21.2c4.9,0,9.3-3,11-7.6l3.7-9.5h9c2.7,0,4.8-2.2,4.8-4.8c0-2.7-2.2-4.8-4.8-4.8H94.6l-6,15.8c-0.3,0.8-1.1,1.3-1.9,1.3H75.1V11.6
	c0-1.3,1.1-2.4,2.4-2.4h9.9c2.5,0,4.6-2.1,4.6-4.6C92,2.1,89.9,0,87.4,0H77.1z"/>
</svg>
