<svg width="240" height="98" viewBox="0 0 240 98" fill="none" xmlns="http://www.w3.org/2000/svg">
<g clip-path="url(#clip0_64_390)">
<path d="M231.245 27.7922C231.205 27.6164 231.197 27.4327 231.162 27.2595C231.107 26.8299 230.962 26.4163 230.738 26.0449C230.716 26.0072 230.685 25.9754 230.648 25.9522C230.611 25.929 230.569 25.9151 230.526 25.9117C230.454 25.914 230.386 25.9414 230.332 25.989C230.266 26.0444 230.205 26.107 230.152 26.1754C229.73 26.7094 229.151 27.101 228.495 27.2968C228.147 27.4017 227.785 27.4565 227.421 27.4593C226.85 27.4578 226.289 27.311 225.791 27.0331C225.123 26.6654 224.596 26.0896 224.291 25.3948C223.985 24.7001 223.919 23.9249 224.103 23.1892C224.286 22.4535 224.709 21.7982 225.305 21.3245C225.901 20.8508 226.639 20.5851 227.402 20.5685C227.887 20.5734 228.366 20.6692 228.815 20.8508C229.267 21.0404 229.673 21.3259 230.002 21.6872C230.042 21.7384 230.092 21.7808 230.15 21.812C230.207 21.8432 230.27 21.8623 230.335 21.8683C230.472 21.8683 230.582 21.7645 230.665 21.5487C230.718 21.4017 230.753 21.2487 230.767 21.0932C230.826 20.2575 230.784 19.4178 230.641 18.5921C230.625 18.4802 230.569 18.4483 230.467 18.4429C230.269 18.4371 230.071 18.4193 229.876 18.3897C229.259 18.3083 228.665 18.1062 228.127 17.7953C227.59 17.4844 227.12 17.0708 226.745 16.5784C226.309 16.0114 226.036 15.339 225.952 14.6313L225.716 14.6553L225.469 14.6846C225.155 14.7165 224.841 14.7272 224.529 14.7325C223.86 14.767 223.191 14.6692 222.561 14.4448C222.404 14.3851 222.262 14.2906 222.148 14.1684C222.034 14.0462 221.949 13.8997 221.9 13.74C221.852 13.5803 221.841 13.4117 221.868 13.2472C221.896 13.0826 221.961 12.9265 222.058 12.7907C222.163 12.6338 222.288 12.4906 222.429 12.3645L222.531 12.2633C222.999 11.7984 223.266 11.1705 223.275 10.5133C223.287 10.1593 223.226 9.80661 223.096 9.47646C222.967 9.14631 222.772 8.84552 222.522 8.59221C222.272 8.3389 221.974 8.13829 221.644 8.00245C221.314 7.86661 220.96 7.79834 220.603 7.80176C220.495 7.80458 220.387 7.81616 220.281 7.83639C219.904 7.88158 219.541 8.00626 219.216 8.20207C218.892 8.39787 218.614 8.66026 218.4 8.9716C218.186 9.28295 218.042 9.63605 217.978 10.0072C217.913 10.3783 217.929 10.7589 218.025 11.1233C218.167 11.6582 218.474 12.1358 218.903 12.4897C219.068 12.6089 219.199 12.7679 219.285 12.9515C219.37 13.1352 219.407 13.3375 219.392 13.5392C219.357 13.7381 219.271 13.9247 219.142 14.081C219.013 14.2373 218.846 14.3581 218.656 14.4315C218.512 14.5024 218.362 14.5604 218.207 14.6047C217.65 14.7654 217.076 14.8602 216.497 14.887V14.887H216.013C216.151 17.2076 216.871 19.4572 218.11 21.4308C219.348 23.4043 221.065 25.0391 223.103 26.1861C224.582 27.0223 226.206 27.5745 227.891 27.8136C228.627 27.9261 229.37 27.9857 230.115 27.992C230.442 27.992 230.77 27.976 231.1 27.9467C231.221 27.9467 231.272 27.9281 231.245 27.7922Z" fill="#FD9D22"/>
<path d="M230.128 8.77931V8.74734C230.128 8.45967 230.142 8.172 230.171 7.87368C230.192 7.31289 230.332 6.76276 230.582 6.25951C230.674 6.07484 230.816 5.91897 230.992 5.80901C231.168 5.69906 231.371 5.63927 231.578 5.63623C231.889 5.64135 232.186 5.76652 232.406 5.98516C232.477 6.05453 232.545 6.12838 232.607 6.20625C232.849 6.5269 233.164 6.78671 233.526 6.96481C233.888 7.14291 234.287 7.23434 234.691 7.23174C234.806 7.23174 234.927 7.23174 235.048 7.2131C235.658 7.14547 236.225 6.86679 236.649 6.42598C237.073 5.98517 237.326 5.41038 237.366 4.80251C237.428 4.28232 237.322 3.75587 237.064 3.29914C236.805 2.84242 236.407 2.47903 235.926 2.26142C235.547 2.05742 235.125 1.94687 234.694 1.93912C234.09 1.95715 233.509 2.17357 233.042 2.55442C232.973 2.60861 232.906 2.6664 232.843 2.72756C232.733 2.82736 232.617 2.92159 232.497 3.0099C232.312 3.13816 232.094 3.2095 231.868 3.215C231.68 3.21046 231.497 3.15559 231.338 3.05619C231.178 2.9568 231.049 2.81656 230.963 2.65031C230.838 2.4299 230.748 2.19189 230.695 1.94445C230.59 1.46587 230.537 0.977296 230.539 0.487448V0.487448V0.00799561H230.16H229.852C229.209 0.0126198 228.568 0.066945 227.934 0.170477C226.22 0.434373 224.571 1.01632 223.074 1.88585C221.198 2.96474 219.596 4.45506 218.39 6.2427C217.185 8.03035 216.407 10.0679 216.118 12.1994C216.039 12.7828 216.004 13.3714 216.016 13.96C216.016 14.0559 216.016 14.1412 216.134 14.1412C216.149 14.1432 216.163 14.1432 216.177 14.1412C216.467 14.1039 216.757 14.0879 217.047 14.0559C217.506 14.0253 217.955 13.9096 218.371 13.715C218.685 13.5472 218.704 13.3794 218.444 13.1317C218.271 12.9957 218.109 12.8461 217.96 12.6842C217.644 12.3006 217.414 11.8547 217.285 11.3763C217.156 10.8978 217.131 10.3976 217.211 9.90868C217.335 9.11187 217.742 8.38503 218.357 7.85873C218.973 7.33243 219.758 7.04118 220.571 7.0373C220.727 7.0369 220.883 7.04847 221.038 7.07192C221.641 7.12883 222.216 7.35108 222.699 7.71378C223.182 8.07649 223.553 8.56532 223.772 9.12557C224.034 9.70233 224.123 10.3419 224.027 10.9674C223.932 11.593 223.657 12.178 223.235 12.6522C223.087 12.8333 222.907 12.9932 222.751 13.169C222.707 13.2037 222.674 13.2497 222.654 13.3021C222.634 13.3544 222.63 13.411 222.64 13.4659C222.651 13.5207 222.676 13.5717 222.714 13.6132C222.751 13.6548 222.8 13.6854 222.853 13.7017C223.02 13.7898 223.203 13.8467 223.39 13.8695C223.719 13.9191 224.052 13.9422 224.384 13.9387C224.838 13.9387 225.297 13.9041 225.754 13.8748C225.869 13.8748 225.888 13.8082 225.901 13.7123C225.948 13.1729 226.069 12.6424 226.261 12.1355C226.654 11.108 227.421 10.2634 228.41 9.76751C228.952 9.4854 229.547 9.31592 230.158 9.26941V9.02969L230.128 8.77931Z" fill="#68F574"/>
<path d="M239.616 22.6701C239.535 22.497 239.452 22.3292 239.347 22.1613C238.687 20.968 237.897 19.8467 237.129 18.7146C236.614 17.9635 236.085 17.2257 235.502 16.5198C235.443 16.4532 235.4 16.4106 235.357 16.4106C235.314 16.4106 235.274 16.4425 235.22 16.5145C235.048 16.7503 234.845 16.9618 234.616 17.1431C233.717 17.8932 232.6 18.3384 231.428 18.4136V18.4136C231.428 18.4136 231.482 18.8931 231.476 18.8931C231.506 19.1408 231.525 19.3858 231.543 19.6202L231.557 19.7934C231.634 20.4326 231.595 21.0804 231.441 21.7059C231.393 21.9647 231.257 22.1994 231.056 22.3713C230.854 22.5432 230.6 22.642 230.335 22.6514C230.119 22.6472 229.907 22.5856 229.723 22.473C229.591 22.3901 229.472 22.2897 229.368 22.1747C229.119 21.917 228.819 21.7119 228.488 21.5714C228.157 21.4309 227.8 21.358 227.44 21.3569C227.325 21.3569 227.196 21.3702 227.059 21.3889C226.586 21.4465 226.139 21.6335 225.767 21.9289C225.395 22.2243 225.113 22.6165 224.953 23.0616C224.803 23.4547 224.749 23.8773 224.795 24.2951C224.841 24.7129 224.987 25.1139 225.219 25.4654C225.451 25.8168 225.764 26.1088 226.132 26.3174C226.5 26.526 226.912 26.6453 227.335 26.6655C227.376 26.6683 227.416 26.6683 227.456 26.6655C227.876 26.6702 228.29 26.5742 228.664 26.386C229.038 26.1977 229.361 25.9226 229.605 25.5841C229.707 25.4321 229.848 25.3088 230.012 25.2262C230.177 25.1436 230.36 25.1044 230.544 25.1124C230.729 25.1204 230.908 25.1754 231.064 25.272C231.221 25.3686 231.35 25.5036 231.439 25.664C231.52 25.7964 231.592 25.9344 231.654 26.0769C231.707 26.2137 231.752 26.3533 231.791 26.4951C231.825 26.6176 231.86 26.7454 231.887 26.876C231.914 27.0065 231.965 27.2116 231.995 27.3714C232.027 27.5419 232.054 27.7043 232.073 27.8349C232.944 27.71 233.803 27.5095 234.64 27.2355C236.54 26.6335 238.212 25.4734 239.433 23.9087C239.58 23.7411 239.675 23.5354 239.707 23.3159C239.74 23.0964 239.708 22.8723 239.616 22.6701V22.6701Z" fill="#C91778"/>
<path d="M230.934 8.65678C230.932 8.10134 230.997 7.5477 231.13 7.00801C231.158 6.89395 231.2 6.78387 231.256 6.68038C231.431 6.36341 231.648 6.32878 231.89 6.60047C232.143 6.91198 232.435 7.18955 232.76 7.42619C233.302 7.79298 233.938 7.9991 234.594 8.02041C235.249 8.04172 235.897 7.87734 236.462 7.54653C237.027 7.21571 237.486 6.73214 237.784 6.1524C238.081 5.57267 238.207 4.92076 238.145 4.27297C238.083 3.62518 237.836 3.00831 237.433 2.49456C237.031 1.98082 236.489 1.59145 235.871 1.37203C235.254 1.15261 234.586 1.11222 233.946 1.25557C233.306 1.39893 232.72 1.72011 232.258 2.18152C232.214 2.22686 232.167 2.26956 232.118 2.30937C231.898 2.47452 231.721 2.42124 231.608 2.17353C231.482 1.86905 231.404 1.54762 231.374 1.21995C231.339 0.924291 231.334 0.625964 231.323 0.327638C231.313 0.0293123 231.323 0.0293123 231.608 0.0612758C232.337 0.141508 233.06 0.274147 233.77 0.458153C235.481 0.900544 237.085 1.68054 238.485 2.75154C238.979 3.13428 239.442 3.55367 239.871 4.0061C239.938 4.07297 239.982 4.15935 239.997 4.25274C240.011 4.34613 239.996 4.44167 239.952 4.52551C239.622 5.31425 239.242 6.08118 238.813 6.82155C238.037 8.25724 237.306 9.71957 236.353 11.054C236.231 11.2378 236.088 11.4067 235.926 11.5575C235.684 11.7652 235.631 11.7759 235.424 11.5388C235.057 11.1266 234.647 10.7551 234.199 10.4308C233.31 9.75151 232.237 9.34922 231.116 9.27474C230.977 9.27474 230.918 9.2268 230.931 9.08031C230.945 8.93381 230.934 8.79795 230.934 8.65678Z" fill="#00CAF7"/>
</g>
<path d="M153.535 62L162.805 41H168.655L177.955 62H171.775L164.515 43.91H166.855L159.595 62H153.535ZM158.605 57.92L160.135 53.54H170.395L171.925 57.92H158.605ZM185.099 49.13H194.849V53.57H185.099V49.13ZM185.519 57.41H196.499V62H179.639V41H196.109V45.59H185.519V57.41ZM210.265 62.42C208.605 62.42 207.065 62.16 205.645 61.64C204.245 61.1 203.025 60.34 201.985 59.36C200.965 58.38 200.165 57.23 199.585 55.91C199.005 54.57 198.715 53.1 198.715 51.5C198.715 49.9 199.005 48.44 199.585 47.12C200.165 45.78 200.965 44.62 201.985 43.64C203.025 42.66 204.245 41.91 205.645 41.39C207.065 40.85 208.605 40.58 210.265 40.58C212.205 40.58 213.935 40.92 215.455 41.6C216.995 42.28 218.275 43.26 219.295 44.54L215.515 47.96C214.835 47.16 214.085 46.55 213.265 46.13C212.465 45.71 211.565 45.5 210.565 45.5C209.705 45.5 208.915 45.64 208.195 45.92C207.475 46.2 206.855 46.61 206.335 47.15C205.835 47.67 205.435 48.3 205.135 49.04C204.855 49.78 204.715 50.6 204.715 51.5C204.715 52.4 204.855 53.22 205.135 53.96C205.435 54.7 205.835 55.34 206.335 55.88C206.855 56.4 207.475 56.8 208.195 57.08C208.915 57.36 209.705 57.5 210.565 57.5C211.565 57.5 212.465 57.29 213.265 56.87C214.085 56.45 214.835 55.84 215.515 55.04L219.295 58.46C218.275 59.72 216.995 60.7 215.455 61.4C213.935 62.08 212.205 62.42 210.265 62.42ZM227.404 49.13H237.154V53.57H227.404V49.13ZM227.824 57.41H238.804V62H221.944V41H238.414V45.59H227.824V57.41ZM47.2001 85.21H56.8901V89.8H47.2001V85.21ZM47.6201 97H41.6801V76H58.1501V80.59H47.6201V97ZM71.3423 97.42C69.6623 97.42 68.1123 97.15 66.6923 96.61C65.2723 96.07 64.0323 95.31 62.9723 94.33C61.9323 93.33 61.1223 92.17 60.5423 90.85C59.9623 89.53 59.6723 88.08 59.6723 86.5C59.6723 84.92 59.9623 83.47 60.5423 82.15C61.1223 80.83 61.9323 79.68 62.9723 78.7C64.0323 77.7 65.2723 76.93 66.6923 76.39C68.1123 75.85 69.6623 75.58 71.3423 75.58C73.0423 75.58 74.5923 75.85 75.9923 76.39C77.4123 76.93 78.6423 77.7 79.6823 78.7C80.7223 79.68 81.5323 80.83 82.1123 82.15C82.7123 83.47 83.0123 84.92 83.0123 86.5C83.0123 88.08 82.7123 89.54 82.1123 90.88C81.5323 92.2 80.7223 93.35 79.6823 94.33C78.6423 95.31 77.4123 96.07 75.9923 96.61C74.5923 97.15 73.0423 97.42 71.3423 97.42ZM71.3423 92.5C72.1423 92.5 72.8823 92.36 73.5623 92.08C74.2623 91.8 74.8623 91.4 75.3623 90.88C75.8823 90.34 76.2823 89.7 76.5623 88.96C76.8623 88.22 77.0123 87.4 77.0123 86.5C77.0123 85.58 76.8623 84.76 76.5623 84.04C76.2823 83.3 75.8823 82.67 75.3623 82.15C74.8623 81.61 74.2623 81.2 73.5623 80.92C72.8823 80.64 72.1423 80.5 71.3423 80.5C70.5423 80.5 69.7923 80.64 69.0923 80.92C68.4123 81.2 67.8123 81.61 67.2923 82.15C66.7923 82.67 66.3923 83.3 66.0923 84.04C65.8123 84.76 65.6723 85.58 65.6723 86.5C65.6723 87.4 65.8123 88.22 66.0923 88.96C66.3923 89.7 66.7923 90.34 67.2923 90.88C67.8123 91.4 68.4123 91.8 69.0923 92.08C69.7923 92.36 70.5423 92.5 71.3423 92.5ZM86.1234 97V76H95.7234C97.6434 76 99.2934 76.31 100.673 76.93C102.073 77.55 103.153 78.45 103.913 79.63C104.673 80.79 105.053 82.17 105.053 83.77C105.053 85.35 104.673 86.72 103.913 87.88C103.153 89.02 102.073 89.9 100.673 90.52C99.2934 91.12 97.6434 91.42 95.7234 91.42H89.4234L92.0634 88.93V97H86.1234ZM99.1134 97L93.8934 89.35H100.223L105.473 97H99.1134ZM92.0634 89.56L89.4234 86.83H95.3634C96.6034 86.83 97.5234 86.56 98.1234 86.02C98.7434 85.48 99.0534 84.73 99.0534 83.77C99.0534 82.79 98.7434 82.03 98.1234 81.49C97.5234 80.95 96.6034 80.68 95.3634 80.68H89.4234L92.0634 77.95V89.56ZM108.33 97V76H113.22L121.92 90.28H119.34L127.8 76H132.69L132.75 97H127.29L127.23 84.31H128.16L121.83 94.93H119.19L112.68 84.31H113.82V97H108.33ZM134.434 97L143.704 76H149.554L158.854 97H152.674L145.414 78.91H147.754L140.494 97H134.434ZM139.504 92.92L141.034 88.54H151.294L152.824 92.92H139.504ZM170.715 97.42C169.055 97.42 167.515 97.16 166.095 96.64C164.695 96.1 163.475 95.34 162.435 94.36C161.415 93.38 160.615 92.23 160.035 90.91C159.455 89.57 159.165 88.1 159.165 86.5C159.165 84.9 159.455 83.44 160.035 82.12C160.615 80.78 161.415 79.62 162.435 78.64C163.475 77.66 164.695 76.91 166.095 76.39C167.515 75.85 169.055 75.58 170.715 75.58C172.655 75.58 174.385 75.92 175.905 76.6C177.445 77.28 178.725 78.26 179.745 79.54L175.965 82.96C175.285 82.16 174.535 81.55 173.715 81.13C172.915 80.71 172.015 80.5 171.015 80.5C170.155 80.5 169.365 80.64 168.645 80.92C167.925 81.2 167.305 81.61 166.785 82.15C166.285 82.67 165.885 83.3 165.585 84.04C165.305 84.78 165.165 85.6 165.165 86.5C165.165 87.4 165.305 88.22 165.585 88.96C165.885 89.7 166.285 90.34 166.785 90.88C167.305 91.4 167.925 91.8 168.645 92.08C169.365 92.36 170.155 92.5 171.015 92.5C172.015 92.5 172.915 92.29 173.715 91.87C174.535 91.45 175.285 90.84 175.965 90.04L179.745 93.46C178.725 94.72 177.445 95.7 175.905 96.4C174.385 97.08 172.655 97.42 170.715 97.42ZM182.393 97V76H188.333V97H182.393ZM203.149 97.42C201.469 97.42 199.919 97.15 198.499 96.61C197.079 96.07 195.839 95.31 194.779 94.33C193.739 93.33 192.929 92.17 192.349 90.85C191.769 89.53 191.479 88.08 191.479 86.5C191.479 84.92 191.769 83.47 192.349 82.15C192.929 80.83 193.739 79.68 194.779 78.7C195.839 77.7 197.079 76.93 198.499 76.39C199.919 75.85 201.469 75.58 203.149 75.58C204.849 75.58 206.399 75.85 207.799 76.39C209.219 76.93 210.449 77.7 211.489 78.7C212.529 79.68 213.339 80.83 213.919 82.15C214.519 83.47 214.819 84.92 214.819 86.5C214.819 88.08 214.519 89.54 213.919 90.88C213.339 92.2 212.529 93.35 211.489 94.33C210.449 95.31 209.219 96.07 207.799 96.61C206.399 97.15 204.849 97.42 203.149 97.42ZM203.149 92.5C203.949 92.5 204.689 92.36 205.369 92.08C206.069 91.8 206.669 91.4 207.169 90.88C207.689 90.34 208.089 89.7 208.369 88.96C208.669 88.22 208.819 87.4 208.819 86.5C208.819 85.58 208.669 84.76 208.369 84.04C208.089 83.3 207.689 82.67 207.169 82.15C206.669 81.61 206.069 81.2 205.369 80.92C204.689 80.64 203.949 80.5 203.149 80.5C202.349 80.5 201.599 80.64 200.899 80.92C200.219 81.2 199.619 81.61 199.099 82.15C198.599 82.67 198.199 83.3 197.899 84.04C197.619 84.76 197.479 85.58 197.479 86.5C197.479 87.4 197.619 88.22 197.899 88.96C198.199 89.7 198.599 90.34 199.099 90.88C199.619 91.4 200.219 91.8 200.899 92.08C201.599 92.36 202.349 92.5 203.149 92.5ZM200.209 74.29L204.229 69.73H209.929L204.289 74.29H200.209ZM217.93 97V76H222.82L234.4 89.98H232.09V76H237.91V97H233.02L221.44 83.02H223.75V97H217.93Z" fill="black"/>
<defs>
<clipPath id="clip0_64_390">
<rect width="24" height="28" fill="white" transform="translate(216)"/>
</clipPath>
</defs>
</svg>
