<svg width="77" height="26" viewBox="0 0 77 26" fill="none" xmlns="http://www.w3.org/2000/svg">
<path d="M9.91353 2.86656L0 25.5602H25.7393V19.7673H8.83857L14.3328 7.28585L17.7966 15.3481H30.935C32.5474 15.3481 33.8613 14.0342 33.8613 12.4218C33.8613 10.8093 32.5474 9.49549 30.935 9.49549H21.6187L18.7521 2.986C18.0355 1.37356 16.6022 0.23888 14.8703 0C14.6911 0 14.512 0 14.3328 0C12.4218 0 10.6899 1.13468 9.91353 2.86656Z" fill="white"/>
<path d="M27.1727 0C24.0672 0 21.6187 2.50824 21.6187 5.55397V25.6199H44.3123V19.8271H27.4116V5.49425H34.7571C36.2501 5.49425 37.5043 4.24012 37.5043 2.74712C37.5043 1.25412 36.2501 0 34.7571 0H27.1727Z" fill="white"/>
<path d="M61.8699 0C58.7645 0 56.316 2.50824 56.316 5.55397V25.6199H73.9334C75.5458 25.6199 76.8 24.3061 76.8 22.7533C76.8 21.1409 75.4861 19.8868 73.9334 19.8868H62.1088V5.55397H69.4544C70.9474 5.55397 72.2015 4.29984 72.2015 2.80684C72.2015 1.31384 70.9474 0 69.4544 0H61.8699Z" fill="white"/>
<path d="M45.9247 0C42.0429 0 38.9375 3.10544 38.9375 6.98725V25.6199H51.5982C54.5244 25.6199 57.1521 23.8283 58.1674 21.0812L60.377 15.4078H65.7518C67.3643 15.4078 68.6184 14.0939 68.6184 12.5412C68.6184 10.9288 67.3045 9.67465 65.7518 9.67465H56.3758L52.7926 19.1104C52.6134 19.5882 52.1356 19.8868 51.6579 19.8868H44.7303V6.92753C44.7303 6.15117 45.3873 5.49425 46.1636 5.49425H52.0759C53.5689 5.49425 54.823 4.24012 54.823 2.74712C54.823 1.25412 53.5689 0 52.0759 0H45.9247Z" fill="white"/>
</svg>
