<svg width="370" height="477" viewBox="0 0 370 477" fill="none" xmlns="http://www.w3.org/2000/svg">
<path fill-rule="evenodd" clip-rule="evenodd" d="M370 0H0V38.3062C1.35438 46.3192 4.04366 49.7826 5.80982 49.7826C7.68712 49.7826 9.9816 45 10.816 41.9565C11.6503 38.913 13.319 35 16.0307 35C18.7423 35 25 41.5217 25 63.2609C25 85 18.9509 94.1304 16.6564 94.1304C14.362 94.1304 12.4847 92.3913 10.816 87.1739C9.14724 81.9565 7.26994 78.913 5.80982 78.913C4.34969 78.913 2.68098 81.087 1.63804 84.1304C0.981001 86.0478 0.367082 89.7086 0 92.3104V477H370V0Z" fill="#BADEDA"/>
</svg>
