<svg width="1140" height="311" viewBox="0 0 1140 311" fill="none" xmlns="http://www.w3.org/2000/svg">
<path fill-rule="evenodd" clip-rule="evenodd" d="M1.25015e-05 286L0 6.10352e-05L1140 1.12042e-05L1140 286L1034.31 286C1031.71 286.367 1028.05 286.981 1026.13 287.638C1023.09 288.681 1020.91 290.35 1020.91 291.81C1020.91 293.27 1023.96 295.147 1029.17 296.816C1034.39 298.485 1036.13 300.362 1036.13 302.656C1036.13 304.951 1027 311 1005.26 311C983.522 311 977 304.742 977 302.031C977 299.319 980.913 297.65 983.957 296.816C987 295.982 991.783 293.687 991.783 291.81C991.783 290.044 988.319 287.354 980.307 286L1.25015e-05 286Z" fill="#F9DDDD"/>
</svg>
