<svg width="395" height="477" viewBox="0 0 395 477" fill="none" xmlns="http://www.w3.org/2000/svg">
<path fill-rule="evenodd" clip-rule="evenodd" d="M370 0H0V477H370V372.31C370.367 369.709 370.981 366.048 371.638 364.13C372.681 361.087 374.35 358.913 375.81 358.913C377.27 358.913 379.147 361.957 380.816 367.174C382.485 372.391 384.362 374.13 386.656 374.13C388.951 374.13 395 365 395 343.261C395 321.522 388.742 315 386.031 315C383.319 315 381.65 318.913 380.816 321.957C379.982 325 377.687 329.783 375.81 329.783C374.044 329.783 371.354 326.319 370 318.306V0Z" fill="#F9DDDD"/>
</svg>
