<svg width="1140" height="311" viewBox="0 0 1140 311" fill="none" xmlns="http://www.w3.org/2000/svg">
<path fill-rule="evenodd" clip-rule="evenodd" d="M980.306 1.81846e-05L0 6.10352e-05L1.25015e-05 286L980.307 286C988.319 287.354 991.783 290.044 991.783 291.81C991.783 293.687 987 295.982 983.957 296.816C980.913 297.65 977 299.319 977 302.031C977 304.742 983.522 311 1005.26 311C1027 311 1036.13 304.951 1036.13 302.656C1036.13 300.362 1034.39 298.485 1029.17 296.816C1023.96 295.147 1020.91 293.27 1020.91 291.81C1020.91 290.35 1023.09 288.681 1026.13 287.638C1028.05 286.981 1031.71 286.367 1034.31 286L1140 286V1.12042e-05L1034.31 1.5824e-05C1031.71 0.3671 1028.05 0.98101 1026.13 1.63803C1023.09 2.68098 1020.91 4.34969 1020.91 5.80981C1020.91 7.26994 1023.96 9.14724 1029.17 10.8159C1034.39 12.4847 1036.13 14.362 1036.13 16.6564C1036.13 18.9509 1027 25 1005.26 25C983.522 25 977 18.7423 977 16.0307C977 13.319 980.913 11.6503 983.957 10.8159C987 9.9816 991.783 7.68712 991.783 5.80982C991.783 4.04366 988.319 1.35441 980.306 1.81846e-05Z" fill="#FFDD99"/>
</svg>
