<svg width="1140" height="286" viewBox="0 0 1140 286" fill="none" xmlns="http://www.w3.org/2000/svg">
<path fill-rule="evenodd" clip-rule="evenodd" d="M980.307 6.98042e-06L0 4.9831e-05L1.25015e-05 286L1140 286V0L1034.31 4.61985e-06C1031.71 0.367095 1028.05 0.980979 1026.13 1.63797C1023.09 2.68092 1020.91 4.34963 1020.91 5.80975C1020.91 7.26988 1023.96 9.14718 1029.17 10.8159C1034.39 12.4846 1036.13 14.3619 1036.13 16.6564C1036.13 18.9509 1027 24.9999 1005.26 24.9999C983.522 24.9999 977 18.7423 977 16.0306C977 13.319 980.913 11.6502 983.957 10.8159C987 9.98153 991.783 7.68705 991.783 5.80975C991.783 4.04362 988.319 1.35441 980.307 6.98042e-06Z" fill="#BADEDA"/>
</svg>
