<svg width="395" height="477" viewBox="0 0 395 477" fill="none" xmlns="http://www.w3.org/2000/svg">
<path fill-rule="evenodd" clip-rule="evenodd" d="M0 0H370V38.3061C371.354 46.3192 374.044 49.7826 375.81 49.7826C377.687 49.7826 379.982 45 380.816 41.9565C381.65 38.913 383.319 35 386.031 35C388.742 35 395 41.5217 395 63.2609C395 85 388.951 94.1304 386.656 94.1304C384.362 94.1304 382.485 92.3913 380.816 87.1739C379.147 81.9565 377.27 78.913 375.81 78.913C374.35 78.913 372.681 81.087 371.638 84.1304C370.981 86.0478 370.367 89.7086 370 92.3104V477H0V372.31C0.367082 369.709 0.981001 366.048 1.63804 364.13C2.68098 361.087 4.34969 358.913 5.80982 358.913C7.26994 358.913 9.14724 361.957 10.816 367.174C12.4847 372.391 14.362 374.13 16.6564 374.13C18.9509 374.13 25 365 25 343.261C25 321.522 18.7423 315 16.0307 315C13.319 315 11.6503 318.913 10.816 321.957C9.9816 325 7.68712 329.783 5.80982 329.783C4.04366 329.783 1.35438 326.319 0 318.306V0Z" fill="#FFDD99"/>
</svg>
